SplineFontDB: 3.0
FontName: Rokkitt-Regular
FullName: Rokkitt Regular
FamilyName: Rokkitt
Weight: Regular
Copyright: Copyright (c) 2011 by vernon adams. This\nFont Software is licensed under the SIL Open Font License, Version\n1.1. This license is available with a FAQ at:\nhttp://scripts.sil.org/OFL
Version: 2.000
ItalicAngle: 0
UnderlinePosition: 0
UnderlineWidth: 0
Ascent: 1638
Descent: 410
UFOAscent: 1638
UFODescent: -410
LayerCount: 2
Layer: 0 0 "Back"  1
Layer: 1 0 "Fore"  0
FSType: 0
OS2Version: 0
OS2_WeightWidthSlopeOnly: 0
OS2_UseTypoMetrics: 0
CreationTime: 1349982687
ModificationTime: 1349986575
PfmFamily: 17
TTFWeight: 400
TTFWidth: 5
LineGap: 0
VLineGap: 0
OS2TypoAscent: 1638
OS2TypoAOffset: 0
OS2TypoDescent: -410
OS2TypoDOffset: 0
OS2TypoLinegap: 0
OS2WinAscent: 1710
OS2WinAOffset: 0
OS2WinDescent: 533
OS2WinDOffset: 0
HheadAscent: 1673
HheadAOffset: 0
HheadDescent: 163
HheadDOffset: 0
OS2Vendor: 'newt'
Lookup: 258 0 0 "'kern' Horizontal Kerning lookup 0"  {"'kern' Horizontal Kerning lookup 0 per glyph data 0"  "'kern' Horizontal Kerning lookup 0 kerning class 1"  } ['kern' ('DFLT' <'dflt' > 'latn' <'dflt' > ) ]
MarkAttachClasses: 1
DEI: 91125
KernClass2: 23 29 "'kern' Horizontal Kerning lookup 0 kerning class 1" 
 89 A Aacute Abreve Acircumflex Adieresis Agrave Amacron Aogonek Aring Atilde uni0200 uni0202
 1 B
 111 D Dcaron Eth O Oacute Obreve Ocircumflex Odieresis Ograve Ohungarumlaut Omacron Oslash Otilde Q uni020C uni020E
 1 F
 51 H Hcircumflex M N Nacute Ncaron Ncommaaccent Ntilde
 1 J
 1 K
 1 L
 1 P
 44 R Racute Rcaron Rcommaaccent uni0210 uni0212
 1 V
 1 W
 18 Y Yacute Ydieresis
 106 b o oacute obreve ocircumflex odieresis ograve ohungarumlaut omacron oslash otilde p thorn uni020D uni020F
 1 d
 56 h hbar hcircumflex m n nacute ncaron ncommaaccent ntilde
 27 k kcommaaccent kgreenlandic
 44 r racute rcaron rcommaaccent uni0211 uni0213
 1 v
 1 w
 1 x
 18 y yacute ydieresis

StartChar: A
Encoding: 33 65 0
Width: 1263
VWidth: 0
Flags: HMW
LayerCount: 2
Fore
SplineSet
808 545 m 1
 639 1037 l 1
 625 1037 l 1
 454 545 l 1
 808 545 l 1
362 1153 m 1
 892 1153 l 1
 892 1037 l 1
 781 1037 l 1
 1103 116 l 1
 1246 116 l 1
 1246 0 l 1
 789 0 l 1
 789 116 l 1
 937 116 l 1
 838 424 l 1
 424 424 l 1
 328 116 l 1
 474 116 l 1
 474 0 l 1
 17 0 l 1
 17 116 l 1
 162 116 l 1
 482 1037 l 1
 362 1037 l 1
 362 1153 l 1
EndSplineSet
EndChar

StartChar: AE
Encoding: 131 198 1
Width: 1733
VWidth: 0
Flags: HMW
LayerCount: 2
Fore
SplineSet
825 545 m 1
 707 1037 l 1
 639 1037 l 1
 442 545 l 1
 825 545 l 1
410 1153 m 1
 1487 1153 l 1
 1563 832 l 1
 1431 832 l 1
 1380 1037 l 1
 867 1037 l 1
 958 655 l 1
 1320 655 l 1
 1296 769 l 1
 1393 769 l 1
 1478 410 l 1
 1380 410 l 1
 1341 548 l 1
 982 548 l 1
 1089 116 l 1
 1580 116 l 1
 1528 328 l 1
 1657 328 l 1
 1735 0 l 1
 744 0 l 1
 756 116 l 1
 928 116 l 1
 854 424 l 1
 393 424 l 1
 287 116 l 1
 441 116 l 1
 430 0 l 1
 -23 0 l 1
 -12 116 l 1
 121 116 l 1
 496 1037 l 1
 394 1037 l 1
 410 1153 l 1
EndSplineSet
EndChar

StartChar: B
Encoding: 34 66 11
Width: 1169
VWidth: 0
Flags: HMW
LayerCount: 2
Fore
SplineSet
809 851 m 0
 809 975 726 1037 560 1037 c 2
 421 1037 l 1
 421 661 l 1
 584 661 l 1
 727 662 809 719 809 851 c 0
862 332 m 0
 862 466 751 532 593 532 c 2
 421 532 l 1
 421 116 l 1
 587 116 l 2
 770 116 862 188 862 332 c 0
113 1153 m 1
 599 1153 l 1
 822 1151 975 1058 975 854 c 0
 975 740 908 649 814 607 c 1
 936 566 1029 478 1029 323 c 0
 1029 94 837 0 588 0 c 2
 113 0 l 1
 113 116 l 1
 261 116 l 1
 261 1037 l 1
 113 1037 l 1
 113 1153 l 1
EndSplineSet
EndChar

StartChar: C
Encoding: 35 67 12
Width: 1299
VWidth: 0
Flags: HMW
LayerCount: 2
Fore
SplineSet
108 575 m 1
 108 939 359 1171 708 1171 c 0
 851 1171 971 1121 1066 1022 c 1
 1066 1153 l 1
 1196 1153 l 1
 1196 807 l 5
 1071 807 l 5
 995 960 870 1037 690 1037 c 0
 463 1037 285 837 285 580 c 0
 285 313 458 116 689 116 c 0
 901 116 1035 203 1092 378 c 1
 1227 307 l 1
 1147 113 963 -18 700 -18 c 0
 356 -18 110 214 108 575 c 1
EndSplineSet
EndChar

StartChar: D
Encoding: 36 68 18
Width: 1361
VWidth: 0
Flags: HMW
LayerCount: 2
Fore
SplineSet
1088 581 m 0
 1088 865 951 1037 663 1037 c 2
 434 1037 l 1
 434 116 l 1
 679 116 l 2
 954 116 1088 308 1088 581 c 0
113 1153 m 1
 667 1153 l 2
 1030 1153 1253 963 1253 596 c 0
 1253 199 1053 0 653 0 c 2
 113 0 l 1
 113 116 l 1
 272 116 l 1
 272 1037 l 1
 113 1037 l 1
 113 1153 l 1
EndSplineSet
EndChar

StartChar: E
Encoding: 37 69 20
Width: 1208
VWidth: 0
Flags: HMW
LayerCount: 2
Fore
SplineSet
113 1153 m 1
 1084 1153 l 1
 1084 818 l 5
 953 818 l 5
 953 1037 l 1
 428 1037 l 1
 428 655 l 1
 790 655 l 1
 790 769 l 1
 890 769 l 1
 890 410 l 1
 789 410 l 1
 789 526 l 1
 430 526 l 1
 430 116 l 1
 955 116 l 1
 955 328 l 1
 1084 328 l 1
 1084 0 l 1
 113 0 l 1
 113 116 l 1
 269 116 l 1
 269 1037 l 1
 113 1037 l 1
 113 1153 l 1
EndSplineSet
EndChar

StartChar: Eth
Encoding: 141 208 30
AltUni2: 000110.ffffffff.0
Width: 1271
VWidth: 0
Flags: HMW
LayerCount: 2
Fore
SplineSet
1034 581 m 0
 1034 865 897 1037 609 1037 c 2
 380 1037 l 1
 380 650 l 1
 578 650 l 1
 578 506 l 1
 380 506 l 1
 380 116 l 1
 625 116 l 2
 900 116 1034 308 1034 581 c 0
59 1153 m 1
 613 1153 l 2
 975 1153 1199 963 1199 596 c 0
 1199 199 999 0 599 0 c 2
 59 0 l 1
 59 116 l 1
 218 116 l 1
 218 506 l 1
 61 506 l 1
 61 650 l 1
 218 650 l 1
 218 1037 l 1
 59 1037 l 1
 59 1153 l 1
EndSplineSet
EndChar

StartChar: Euro
Encoding: 402 8364 31
Width: 1093
VWidth: 0
Flags: HMW
LayerCount: 2
Fore
SplineSet
192 771 m 1
 245 995 377 1171 630 1171 c 0
 737 1171 826 1128 897 1042 c 1
 897 1153 l 1
 1027 1153 l 1
 1027 804 l 1
 902 804 l 1
 855 985 741 1037 648 1037 c 0
 504 1037 406 918 369 771 c 1
 618 771 l 1
 618 658 l 1
 349 658 l 1
 347 633 346 607 346 580 c 2
 346 544 l 1
 618 544 l 1
 618 430 l 1
 357 430 l 1
 387 193 509 116 654 116 c 0
 803 116 893 229 923 378 c 1
 1058 307 l 1
 997 128 891 -18 642 -18 c 0
 368 -18 219 175 180 430 c 1
 30 430 l 1
 30 544 l 1
 169 544 l 1
 169 575 l 2
 169 602 170 630 173 658 c 1
 30 658 l 1
 30 771 l 1
 192 771 l 1
EndSplineSet
EndChar

StartChar: F
Encoding: 38 70 32
Width: 1076
VWidth: 0
Flags: HMW
LayerCount: 2
Fore
SplineSet
113 1153 m 1
 1030 1153 l 1
 1030 818 l 5
 898 818 l 5
 898 1037 l 1
 425 1037 l 1
 425 657 l 1
 739 657 l 1
 739 771 l 1
 839 771 l 1
 839 412 l 1
 738 412 l 1
 738 528 l 1
 426 528 l 1
 426 116 l 1
 582 116 l 1
 582 0 l 1
 113 0 l 1
 113 116 l 1
 265 116 l 1
 265 1037 l 1
 113 1037 l 1
 113 1153 l 1
EndSplineSet
EndChar

StartChar: G
Encoding: 39 71 33
Width: 1358
VWidth: 0
Flags: HMW
LayerCount: 2
Fore
SplineSet
108 575 m 0
 108 925 352 1171 695 1171 c 0
 854 1171 983 1121 1082 1022 c 1
 1082 1153 l 1
 1212 1153 l 1
 1212 806 l 5
 1088 806 l 5
 1009 960 881 1037 704 1037 c 0
 461 1037 285 843 285 576 c 0
 285 304 462 116 715 116 c 0
 961 116 1094 235 1101 436 c 1
 874 436 l 1
 874 563 l 1
 1265 563 l 1
 1265 179 1079 -18 716 -18 c 0
 372 -18 108 201 108 575 c 0
EndSplineSet
EndChar

StartChar: H
Encoding: 40 72 38
Width: 1376
VWidth: 0
Flags: HMW
LayerCount: 2
Fore
SplineSet
821 1153 m 1
 1263 1153 l 1
 1263 1037 l 1
 1124 1037 l 1
 1124 116 l 1
 1263 116 l 1
 1263 0 l 1
 821 0 l 1
 821 116 l 1
 964 116 l 1
 964 538 l 1
 413 538 l 1
 413 116 l 1
 556 116 l 1
 556 0 l 1
 113 0 l 1
 113 116 l 1
 252 116 l 1
 252 1037 l 1
 113 1037 l 1
 113 1153 l 1
 556 1153 l 1
 556 1037 l 1
 412 1037 l 1
 412 667 l 1
 963 667 l 1
 963 1037 l 1
 821 1037 l 1
 821 1153 l 1
EndSplineSet
EndChar

StartChar: Hbar
Encoding: 227 294 39
Width: 1294
VWidth: 0
Flags: HMW
LayerCount: 2
Fore
SplineSet
922 667 m 1
 922 810 l 1
 371 810 l 1
 371 667 l 1
 922 667 l 1
780 1153 m 1
 1222 1153 l 1
 1222 1037 l 1
 1083 1037 l 1
 1083 895 l 1
 1221 895 l 1
 1221 810 l 1
 1083 810 l 1
 1083 116 l 1
 1222 116 l 1
 1222 0 l 1
 780 0 l 1
 780 116 l 1
 923 116 l 1
 923 538 l 1
 372 538 l 1
 372 116 l 1
 515 116 l 1
 515 0 l 1
 72 0 l 1
 72 116 l 1
 211 116 l 1
 211 810 l 1
 71 810 l 1
 71 895 l 1
 211 895 l 1
 211 1037 l 1
 72 1037 l 1
 72 1153 l 1
 515 1153 l 1
 515 1037 l 1
 371 1037 l 1
 371 895 l 1
 922 895 l 1
 922 1037 l 1
 780 1037 l 1
 780 1153 l 1
EndSplineSet
EndChar

StartChar: I
Encoding: 41 73 41
Width: 657
VWidth: 0
Flags: HMW
LayerCount: 2
Fore
SplineSet
115 1153 m 1
 543 1153 l 1
 543 1037 l 1
 411 1037 l 1
 411 116 l 1
 543 116 l 1
 543 0 l 1
 115 0 l 1
 115 116 l 1
 249 116 l 1
 249 1037 l 1
 115 1037 l 1
 115 1153 l 1
EndSplineSet
EndChar

StartChar: J
Encoding: 42 74 52
Width: 761
VWidth: 0
Flags: HMW
LayerCount: 2
Fore
SplineSet
184 1153 m 1
 655 1153 l 1
 655 1037 l 1
 502 1037 l 1
 502 99 l 2
 502 -74 414 -181 255 -179 c 1
 108 -179 l 1
 108 -44 l 1
 228 -44 l 2
 318 -44 339 9 339 104 c 2
 339 1037 l 1
 184 1037 l 1
 184 1153 l 1
EndSplineSet
EndChar

StartChar: K
Encoding: 43 75 54
Width: 1236
VWidth: 0
Flags: HMW
LayerCount: 2
Fore
SplineSet
742 1153 m 1
 1193 1153 l 1
 1193 1037 l 1
 1064 1037 l 1
 599 589 l 1
 1088 116 l 1
 1219 116 l 1
 1219 0 l 1
 738 0 l 1
 738 116 l 1
 891 116 l 1
 424 573 l 1
 424 116 l 1
 563 116 l 1
 563 0 l 1
 113 0 l 1
 113 116 l 1
 263 116 l 1
 263 1037 l 1
 113 1037 l 1
 113 1153 l 1
 579 1153 l 1
 579 1037 l 1
 423 1037 l 1
 423 604 l 1
 878 1037 l 1
 742 1037 l 1
 742 1153 l 1
EndSplineSet
EndChar

StartChar: L
Encoding: 44 76 56
Width: 1075
VWidth: 0
Flags: HMW
LayerCount: 2
Fore
SplineSet
113 1153 m 1
 587 1153 l 1
 587 1037 l 1
 432 1037 l 1
 432 116 l 1
 842 116 l 1
 842 452 l 1
 987 452 l 1
 987 0 l 1
 113 0 l 1
 113 116 l 1
 271 116 l 1
 271 1037 l 1
 113 1037 l 1
 113 1153 l 1
EndSplineSet
EndChar

StartChar: Lslash
Encoding: 254 321 61
Width: 984
VWidth: 0
Flags: HMW
LayerCount: 2
Fore
SplineSet
59 1153 m 1
 533 1153 l 1
 533 1037 l 1
 378 1037 l 1
 378 705 l 1
 627 805 l 1
 627 676 l 1
 378 576 l 1
 378 116 l 1
 788 116 l 1
 788 452 l 1
 933 452 l 1
 933 0 l 1
 59 0 l 1
 59 116 l 1
 217 116 l 1
 217 512 l 1
 60 450 l 1
 60 579 l 1
 217 641 l 1
 217 1037 l 1
 59 1037 l 1
 59 1153 l 1
EndSplineSet
EndChar

StartChar: M
Encoding: 45 77 62
Width: 1672
VWidth: 0
Flags: HMW
LayerCount: 2
Fore
SplineSet
1169 1153 m 1
 1559 1153 l 1
 1559 1037 l 1
 1412 1037 l 1
 1412 116 l 1
 1559 116 l 1
 1559 0 l 1
 1131 0 l 1
 1131 116 l 1
 1264 116 l 1
 1264 1023 l 1
 849 0 l 1
 807 0 l 1
 395 1022 l 1
 395 116 l 1
 528 116 l 1
 528 0 l 1
 113 0 l 1
 113 116 l 1
 261 116 l 1
 261 1037 l 1
 113 1037 l 1
 113 1153 l 1
 498 1153 l 1
 831 317 l 1
 1169 1153 l 1
EndSplineSet
EndChar

StartChar: N
Encoding: 46 78 63
Width: 1415
VWidth: 0
Flags: HMW
LayerCount: 2
Fore
SplineSet
878 1153 m 1
 1350 1153 l 1
 1350 1037 l 1
 1177 1037 l 1
 1177 0 l 1
 994 0 l 1
 416 997 l 1
 416 116 l 1
 585 116 l 1
 585 0 l 1
 113 0 l 1
 113 116 l 1
 282 116 l 1
 282 1037 l 1
 113 1037 l 1
 113 1153 l 1
 495 1153 l 1
 1043 211 l 1
 1043 1037 l 1
 878 1037 l 1
 878 1153 l 1
EndSplineSet
EndChar

StartChar: O
Encoding: 47 79 68
Width: 1406
VWidth: 0
Flags: HMW
LayerCount: 2
Fore
SplineSet
1120 576 m 0
 1120 831 953 1036 702 1037 c 1
 452 1036 285 830 285 576 c 0
 285 324 453 116 702 116 c 0
 954 116 1120 322 1120 576 c 0
108 575 m 0
 108 923 348 1171 701 1171 c 0
 1055 1171 1298 924 1298 575 c 0
 1298 234 1053 -18 702 -18 c 1
 351 -16 108 229 108 575 c 0
EndSplineSet
EndChar

StartChar: OE
Encoding: 268 338 69
Width: 1920
VWidth: 0
Flags: HMW
LayerCount: 2
Fore
SplineSet
1017 933 m 1
 904 1002 787 1037 664 1037 c 0
 399 1038 244 855 245 577 c 1
 244 300 411 116 673 116 c 0
 794 116 908 156 1017 235 c 1
 1017 933 l 1
67 575 m 1
 66 911 291 1169 624 1170 c 0
 789 1170 920 1133 1017 1057 c 1
 1017 1153 l 1
 1832 1153 l 1
 1832 832 l 1
 1700 832 l 1
 1700 1037 l 1
 1176 1037 l 1
 1176 655 l 1
 1538 655 l 1
 1538 769 l 1
 1638 769 l 1
 1638 410 l 1
 1537 410 l 1
 1537 526 l 1
 1178 526 l 1
 1178 116 l 1
 1703 116 l 1
 1703 328 l 1
 1832 328 l 1
 1832 0 l 1
 1017 0 l 1
 1017 95 l 1
 920 20 789 -18 624 -18 c 0
 292 -18 66 241 67 575 c 1
EndSplineSet
EndChar

StartChar: Oslash
Encoding: 149 216 77
Width: 1321
VWidth: 0
Flags: HMW
LayerCount: 2
Fore
SplineSet
1078 586 m 0
 1078 742 1008 874 917 948 c 1
 509 143 l 1
 554 125 606 116 666 116 c 0
 928 116 1078 321 1078 586 c 0
829 1002 m 1
 777 1025 720 1037 658 1037 c 0
 410 1037 243 827 243 575 c 0
 243 405 317 270 418 194 c 1
 829 1002 l 1
894 1130 m 1
 947 1235 l 1
 1041 1192 l 1
 987 1085 l 1
 1166 976 1256 799 1256 554 c 0
 1256 208 991 -19 660 -19 c 0
 582 -19 510 -8 443 15 c 1
 389 -92 l 1
 295 -49 l 1
 349 57 l 1
 160 163 66 343 66 596 c 0
 66 935 336 1171 654 1171 c 0
 742 1171 821 1157 894 1130 c 1
EndSplineSet
EndChar

StartChar: P
Encoding: 48 80 79
Width: 1094
VWidth: 0
Flags: HMW
LayerCount: 2
Fore
SplineSet
877 807 m 1
 877 952 796 1037 651 1037 c 2
 424 1037 l 1
 424 577 l 1
 602 577 l 2
 788 577 874 645 877 807 c 1
113 1153 m 1
 649 1153 l 2
 888 1153 1042 1039 1042 805 c 0
 1042 553 854 472 572 472 c 2
 426 472 l 1
 426 116 l 1
 584 116 l 1
 584 0 l 1
 113 0 l 1
 113 116 l 1
 264 116 l 1
 264 1037 l 1
 113 1037 l 1
 113 1153 l 1
EndSplineSet
EndChar

StartChar: Q
Encoding: 49 81 80
Width: 1407
VWidth: 0
Flags: HMW
LayerCount: 2
Fore
SplineSet
1121 574 m 0
 1121 830 955 1036 702 1037 c 1
 451 1036 285 829 285 574 c 0
 285 319 449 116 702 116 c 0
 957 116 1121 317 1121 574 c 0
108 573 m 0
 108 924 350 1171 707 1171 c 0
 1051 1171 1299 921 1299 586 c 0
 1299 251 1078 36 786 4 c 1
 876 -75 959 -97 1029 -97 c 0
 1088 -97 1137 -81 1172 -70 c 1
 1217 -192 l 1
 1159 -214 1100 -229 1035 -229 c 0
 905 -229 753 -169 554 9 c 1
 300 67 108 273 108 573 c 0
EndSplineSet
EndChar

StartChar: R
Encoding: 50 82 81
Width: 1205
VWidth: 0
Flags: HMW
LayerCount: 2
Fore
SplineSet
878 857 m 0
 878 979 780 1037 652 1037 c 2
 436 1037 l 1
 436 657 l 1
 659 657 l 1
 800 658 878 726 878 857 c 0
113 1153 m 1
 664 1153 l 2
 899 1153 1044 1067 1044 855 c 0
 1044 691 958 592 785 558 c 1
 1019 116 l 1
 1165 116 l 1
 1165 0 l 1
 912 0 l 1
 629 538 l 1
 436 538 l 1
 436 116 l 1
 592 116 l 1
 592 0 l 1
 113 0 l 1
 113 116 l 1
 276 116 l 1
 276 1037 l 1
 113 1037 l 1
 113 1153 l 1
EndSplineSet
EndChar

StartChar: S
Encoding: 51 83 85
Width: 1079
VWidth: 0
Flags: HMW
LayerCount: 2
Fore
SplineSet
141 858 m 0
 141 1059 297 1171 497 1171 c 0
 598 1171 688 1140 766 1079 c 1
 766 1153 l 1
 901 1153 l 1
 901 818 l 5
 766 818 l 5
 766 908 l 1
 703 994 619 1037 515 1037 c 0
 384 1037 297 984 297 855 c 0
 297 563 963 771 963 303 c 0
 963 105 790 -18 581 -18 c 0
 467 -18 368 17 284 87 c 1
 284 0 l 1
 149 0 l 1
 149 387 l 1
 284 387 l 1
 284 271 l 1
 363 168 454 116 555 116 c 0
 687 116 798 178 798 298 c 0
 798 642 141 399 141 858 c 0
EndSplineSet
EndChar

StartChar: T
Encoding: 52 84 91
Width: 1055
VWidth: 0
Flags: HMW
LayerCount: 2
Fore
SplineSet
54 1153 m 1
 1001 1153 l 1
 1001 808 l 5
 870 808 l 5
 870 1037 l 1
 611 1037 l 1
 611 116 l 1
 785 116 l 1
 785 0 l 1
 273 0 l 1
 273 116 l 1
 448 116 l 1
 448 1037 l 1
 183 1037 l 1
 183 808 l 5
 54 808 l 5
 54 1153 l 1
EndSplineSet
EndChar

StartChar: Thorn
Encoding: 155 222 94
Width: 1030
VWidth: 0
Flags: HMW
LayerCount: 2
Fore
SplineSet
827 583 m 1
 827 728 746 802 601 802 c 2
 374 802 l 1
 374 373 l 1
 552 373 l 2
 738 373 824 435 827 583 c 1
63 1153 m 1
 534 1153 l 1
 534 1038 l 1
 374 1038 l 1
 374 929 l 1
 596 929 l 1
 825 930 992 817 992 594 c 0
 992 320 825 248 522 248 c 2
 376 248 l 1
 376 116 l 1
 534 116 l 1
 534 0 l 1
 63 0 l 1
 63 116 l 1
 214 116 l 1
 214 1037 l 1
 63 1037 l 1
 63 1153 l 1
EndSplineSet
EndChar

StartChar: U
Encoding: 53 85 95
Width: 1230
VWidth: 0
Flags: HMW
LayerCount: 2
Fore
SplineSet
740 1153 m 1
 1191 1153 l 1
 1191 1037 l 1
 1044 1037 l 1
 1044 380 l 2
 1044 106 887 -18 612 -18 c 0
 348 -18 196 116 196 382 c 2
 196 1037 l 1
 48 1037 l 1
 48 1153 l 1
 500 1153 l 1
 500 1037 l 1
 358 1037 l 1
 358 378 l 2
 358 195 441 116 619 116 c 0
 810 116 882 202 882 389 c 2
 882 1037 l 1
 740 1037 l 1
 740 1153 l 1
EndSplineSet
EndChar

StartChar: V
Encoding: 54 86 106
Width: 1346
VWidth: 0
Flags: HMW
LayerCount: 2
Fore
SplineSet
854 1153 m 1
 1299 1153 l 1
 1299 1037 l 1
 1153 1037 l 1
 755 0 l 1
 601 0 l 1
 198 1037 l 1
 52 1037 l 1
 52 1153 l 1
 507 1153 l 1
 507 1037 l 1
 366 1037 l 1
 683 184 l 1
 995 1037 l 1
 854 1037 l 1
 854 1153 l 1
EndSplineSet
EndChar

StartChar: W
Encoding: 55 87 107
Width: 1852
VWidth: 0
Flags: HMW
LayerCount: 2
Fore
SplineSet
1399 1153 m 1
 1828 1153 l 1
 1828 1037 l 1
 1684 1037 l 1
 1374 0 l 1
 1216 0 l 1
 931 949 l 1
 653 0 l 1
 495 0 l 1
 179 1037 l 1
 36 1037 l 1
 36 1153 l 1
 477 1153 l 1
 477 1037 l 1
 340 1037 l 1
 578 210 l 1
 818 1037 l 1
 678 1037 l 1
 678 1153 l 1
 1197 1153 l 1
 1197 1037 l 1
 1058 1037 l 1
 1299 210 l 1
 1529 1037 l 1
 1399 1037 l 1
 1399 1153 l 1
EndSplineSet
EndChar

StartChar: X
Encoding: 56 88 108
Width: 1223
VWidth: 0
Flags: HMW
LayerCount: 2
Fore
SplineSet
697 1153 m 1
 1143 1153 l 1
 1143 1037 l 1
 992 1037 l 1
 690 595 l 1
 1018 116 l 1
 1173 116 l 1
 1173 0 l 1
 701 0 l 1
 701 116 l 1
 840 116 l 1
 604 470 l 1
 368 116 l 1
 512 116 l 1
 512 0 l 1
 51 0 l 1
 51 116 l 1
 212 116 l 1
 525 582 l 1
 216 1037 l 1
 62 1037 l 1
 62 1153 l 1
 524 1153 l 1
 524 1037 l 1
 389 1037 l 1
 611 705 l 1
 837 1037 l 1
 697 1037 l 1
 697 1153 l 1
EndSplineSet
EndChar

StartChar: Y
Encoding: 57 89 109
Width: 1215
VWidth: 0
Flags: HMW
LayerCount: 2
Fore
SplineSet
733 1153 m 1
 1193 1153 l 1
 1193 1037 l 1
 1037 1037 l 1
 694 530 l 1
 694 116 l 1
 858 116 l 1
 858 0 l 1
 375 0 l 1
 375 116 l 1
 534 116 l 1
 534 530 l 1
 176 1037 l 1
 27 1037 l 1
 27 1153 l 1
 502 1153 l 1
 502 1037 l 1
 352 1037 l 1
 626 648 l 1
 883 1037 l 1
 733 1037 l 1
 733 1153 l 1
EndSplineSet
EndChar

StartChar: Z
Encoding: 58 90 112
Width: 1036
VWidth: 0
Flags: HMW
LayerCount: 2
Fore
SplineSet
117 1153 m 1
 949 1153 l 1
 949 1041 l 1
 282 116 l 1
 830 116 l 1
 830 335 l 1
 959 335 l 1
 959 0 l 1
 87 0 l 1
 87 128 l 1
 744 1037 l 1
 246 1037 l 1
 246 818 l 5
 117 818 l 5
 117 1153 l 1
EndSplineSet
EndChar

StartChar: a
Encoding: 65 97 116
Width: 955
VWidth: 0
Flags: HMW
LayerCount: 2
Fore
SplineSet
639 356 m 5
 612.851428571 361 516.302857143 372 463 372 c 0
 329 372 239 342 239 222 c 0
 239 145 298 93 389 93 c 0
 492.413654618 93 575.746987952 123 639 182 c 5
 639 356 l 5
145 708 m 1
 220 783 320 820 447 820 c 0
 661 820 787 743 787 554 c 2
 787 116 l 1
 931 116 l 1
 931 0 l 1
 654 0 l 1
 654 21 652 93 652 93 c 1
 592 19 462 -18 374 -18 c 0
 225 -18 99 68 99 204 c 0
 98 405 232 470 445 470 c 0
 506.316062176 470 570.647668394 463 639 450 c 5
 639 547 l 6
 639 646 576.666666667 698 452 701 c 1
 355 701 266 665 210 614 c 1
 145 708 l 1
EndSplineSet
EndChar

StartChar: acute
Encoding: 115 180 120
Width: 562
VWidth: 0
Flags: HMW
LayerCount: 2
Fore
SplineSet
264 1171 m 1
 471 1171 l 1
 284 914 l 1
 165 914 l 1
 264 1171 l 1
EndSplineSet
EndChar

StartChar: ae
Encoding: 163 230 122
Width: 1417
VWidth: 0
Flags: HMW
LayerCount: 2
Fore
SplineSet
1217 467 m 1
 1197 603 1133 713 998 713 c 0
 860 713 780 601 763 467 c 1
 1217 467 l 1
601 356 m 1
 547 357 475 368 412 368 c 0
 268 368 196 319 196 221 c 0
 196 149 256 96 327 96 c 0
 463 96 569 130 646 197 c 1
 601 356 l 1
698 640 m 1
 779 792 903 833 1007 833 c 0
 1221 833 1360 642 1360 365 c 1
 759 365 l 1
 777 213 848 101 998 101 c 2
 1004 101 l 2
 1101 101 1177 140 1232 217 c 1
 1360 161 l 1
 1287 38 1168 -23 1001 -23 c 0
 872 -23 767 19 687 103 c 1
 560 24 443 -16 337 -16 c 2
 332 -16 l 2
 182 -16 56 79 55 221 c 1
 55 387 171 470 402 470 c 0
 463 470 527 463 595 450 c 1
 595 547 l 2
 595 655 530 709 399 709 c 0
 315 709 253 681 214 626 c 1
 74 665 l 1
 137 773 252 827 419 827 c 0
 537 827 657 771 698 640 c 1
EndSplineSet
EndChar

StartChar: ampersand
Encoding: 6 38 125
Width: 1201
VWidth: 0
Flags: HMW
LayerCount: 2
Fore
SplineSet
679 926 m 0
 679 1008 615 1045 532 1045 c 0
 455 1045 385 1009 385 936 c 0
 385 842 441 791 494 720 c 1
 584 767 679 818 679 926 c 0
720 219 m 1
 438 573 l 1
 286 520 210 440 210 335 c 0
 210 199 336 116 482 116 c 0
 566 116 645 150 720 219 c 1
245 916 m 0
 245 1067 382 1172 534 1172 c 0
 682 1172 813 1073 813 930 c 0
 813 795 731 692 566 621 c 1
 806 332 l 1
 857 401 892 485 913 583 c 1
 1143 583 l 1
 1143 456 l 1
 1014 456 l 1
 981 355 938 278 886 223 c 1
 959 125 l 1
 1143 125 l 1
 1143 0 l 1
 883 0 l 1
 797 115 l 1
 686 26 572 -19 456 -19 c 0
 241 -19 56 117 56 325 c 0
 56 481 158 596 362 670 c 1
 284 769 245 851 245 916 c 0
EndSplineSet
EndChar

StartChar: approxequal
Encoding: 409 8776 127
Width: 1149
VWidth: 0
Flags: HMW
LayerCount: 2
Fore
SplineSet
911 692 m 1
 1034 692 l 1
 1022 584 1004 508 979 464 c 0
 930 377 868 334 793 334 c 0
 718 334 633 377 539 463 c 0
 480 518 440 549 418 558 c 0
 396 567 377 571 362 571 c 0
 322 571 292 552 273 513 c 0
 254 474 240 415 233 334 c 1
 113 334 l 1
 123 443 140 518 164 562 c 0
 202 631 258 692 350 692 c 0
 461 692 531 632 592 579 c 0
 651 527 692 493 714 478 c 0
 736 463 763 455 795 455 c 0
 827 455 852 475 870 516 c 0
 888 557 902 616 911 692 c 1
911 1128 m 1
 1034 1128 l 1
 1022 1020 1004 944 979 900 c 0
 930 813 868 770 793 770 c 0
 718 770 633 813 539 899 c 0
 495 939 461 968 438 984 c 0
 415 1000 386 1008 353 1008 c 0
 288 1008 248 929 233 770 c 1
 113 770 l 1
 123 879 140 954 164 998 c 0
 202 1067 258 1128 350 1128 c 0
 458 1128 543 1063 598 1012 c 0
 649 965 687 933 711 916 c 0
 735 899 763 891 795 891 c 0
 827 891 852 911 870 952 c 0
 888 993 902 1052 911 1128 c 1
EndSplineSet
EndChar

StartChar: asciicircum
Encoding: 62 94 129
Width: 826
VWidth: 0
Flags: HMW
LayerCount: 2
Fore
SplineSet
339 1171 m 1
 492 1171 l 1
 788 605 l 1
 637 605 l 1
 415 1040 l 1
 189 605 l 1
 38 605 l 1
 339 1171 l 1
EndSplineSet
EndChar

StartChar: asciitilde
Encoding: 94 126 130
Width: 1062
VWidth: 0
Flags: HMW
LayerCount: 2
Fore
SplineSet
77 573 m 1
 140 664 216 709 307 709 c 0
 486 709 598 573 775 573 c 0
 833 573 883 599 924 651 c 1
 987 573 l 1
 933 485 863 441 778 441 c 0
 592 441 480 578 294 578 c 0
 230 578 176 551 132 496 c 1
 77 573 l 1
EndSplineSet
EndChar

StartChar: asterisk
Encoding: 10 42 131
Width: 916
VWidth: 0
Flags: HMW
LayerCount: 2
Fore
SplineSet
379 1171 m 1
 548 1171 l 1
 548 1013 l 1
 488 783 l 1
 688 909 l 1
 844 960 l 1
 894 797 l 1
 744 743 l 1
 515 729 l 1
 688 582 l 1
 783 450 l 1
 644 351 l 1
 548 483 l 1
 463 698 l 1
 379 483 l 1
 282 351 l 1
 141 450 l 1
 237 582 l 1
 411 729 l 1
 183 743 l 1
 32 797 l 1
 82 960 l 1
 237 909 l 1
 437 783 l 1
 379 1013 l 1
 379 1171 l 1
EndSplineSet
EndChar

StartChar: at
Encoding: 32 64 132
Width: 1418
VWidth: 0
Flags: HMW
LayerCount: 2
Fore
SplineSet
866 612 m 0
 866 704 798 784 707 784 c 0
 548 784 473 613 473 450 c 0
 473 338 526 250 641 250 c 0
 791 250 866 455 866 612 c 0
54 494 m 0
 54 864 349 1172 732 1172 c 0
 1080 1172 1335 976 1335 644 c 0
 1335 384 1182 141 928 141 c 0
 861 141 833 193 826 263 c 1
 771 182 702 141 620 141 c 0
 439 141 337 279 337 471 c 0
 337 691 483 897 708 897 c 0
 806 897 879 847 908 766 c 1
 930 879 l 1
 1066 879 l 1
 956 369 l 2
 950 341 941 312 941 290 c 0
 941 271 948 258 970 258 c 0
 1104 258 1210 475 1210 637 c 0
 1210 893 1004 1058 730 1058 c 0
 416 1058 188 807 188 490 c 0
 188 164 407 -33 734 -33 c 0
 900 -33 1034 5 1133 81 c 1
 1202 -3 l 1
 1081 -96 932 -143 755 -143 c 0
 340 -143 54 104 54 494 c 0
EndSplineSet
EndChar

StartChar: b
Encoding: 66 98 134
Width: 1184
VWidth: 0
Flags: HMW
LayerCount: 2
Fore
SplineSet
926 396 m 0
 926 566.570469799 842.767716535 695 665 695 c 4
 575.984615385 695 481.911538462 651.669230769 402 564 c 1
 402 229 l 1
 486.909747292 121 613.263537906 107 682 107 c 0
 842.607594937 107 926 236 926 396 c 0
111 1153 m 1
 402 1153 l 1
 402 707 l 1
 484.836734694 782 579.795918367 820 699 820 c 0
 935 820 1081 636 1082 401 c 0
 1082 167 936 -18 700 -18 c 0
 578.783783784 -18 458.577702703 30 401 111 c 1
 397 0 l 1
 120 0 l 1
 120 116 l 1
 254 116 l 1
 254 1037 l 1
 111 1037 l 1
 111 1153 l 1
EndSplineSet
EndChar

StartChar: backslash
Encoding: 60 92 135
Width: 793
VWidth: 0
Flags: HMW
LayerCount: 2
Fore
SplineSet
129 1171 m 1
 258 1171 l 1
 692 -18 l 1
 563 -18 l 1
 129 1171 l 1
EndSplineSet
EndChar

StartChar: bar
Encoding: 92 124 136
Width: 404
VWidth: 0
Flags: HMW
LayerCount: 2
Fore
SplineSet
141 1153 m 1
 263 1153 l 1
 263 -96 l 1
 141 -96 l 1
 141 1153 l 1
EndSplineSet
EndChar

StartChar: braceleft
Encoding: 91 123 137
Width: 528
VWidth: 0
Flags: HMW
LayerCount: 2
Fore
SplineSet
418 1171 m 1
 492 1171 l 1
 492 1052 l 1
 335 1052 327 1015 327 868 c 0
 327 646 325 544 192 475 c 1
 296 419 326 325 326 166 c 0
 326 87 326 32 328 2 c 0
 333 -96 386 -103 492 -103 c 1
 492 -223 l 1
 419 -223 l 1
 416 -223 l 2
 196 -223 178 -79 178 139 c 0
 178 298 171 410 34 410 c 2
 30 410 l 1
 30 539 l 1
 155 540 178 637 178 767 c 2
 178 845 l 2
 178 1043 213 1171 414 1171 c 2
 418 1171 l 1
EndSplineSet
EndChar

StartChar: braceright
Encoding: 93 125 138
Width: 528
VWidth: 0
Flags: HMW
LayerCount: 2
Fore
SplineSet
30 1171 m 1
 104 1171 l 2
 324 1171 344 1052 344 806 c 0
 344 643 355 539 492 539 c 1
 492 410 l 1
 364 410 344 311 344 177 c 2
 344 90 l 2
 344 -102 305 -223 107 -223 c 2
 103 -223 l 1
 30 -223 l 1
 30 -103 l 1
 134 -103 188 -97 194 -2 c 0
 196 27 196 67 196 119 c 0
 196 314 212 412 330 475 c 1
 213 536 195 635 195 812 c 2
 195 888 l 2
 195 1015 184 1052 30 1052 c 1
 30 1171 l 1
EndSplineSet
EndChar

StartChar: bracketleft
Encoding: 59 91 139
Width: 569
VWidth: 0
Flags: HMW
LayerCount: 2
Fore
SplineSet
147 1262 m 1
 541 1262 l 1
 541 1153 l 1
 290 1153 l 1
 290 -112 l 1
 541 -112 l 1
 541 -219 l 1
 147 -219 l 1
 147 1262 l 1
EndSplineSet
EndChar

StartChar: bracketright
Encoding: 61 93 140
Width: 569
VWidth: 0
Flags: HMW
LayerCount: 2
Fore
SplineSet
32 1262 m 1
 426 1262 l 1
 426 -219 l 1
 32 -219 l 1
 32 -112 l 1
 283 -112 l 1
 283 1153 l 1
 32 1153 l 1
 32 1262 l 1
EndSplineSet
EndChar

StartChar: breve
Encoding: 355 728 141
Width: 584
VWidth: 0
Flags: HMW
LayerCount: 2
Fore
SplineSet
421 1153 m 1
 546 1153 l 1
 534 1029 441 940 292 940 c 0
 154 940 48 1024 38 1153 c 1
 162 1153 l 1
 174 1082 235 1047 294 1047 c 0
 353 1047 411 1082 421 1153 c 1
EndSplineSet
EndChar

StartChar: brokenbar
Encoding: 101 166 142
Width: 404
VWidth: 0
Flags: HMW
LayerCount: 2
Fore
SplineSet
141 446 m 1
 263 446 l 1
 263 -18 l 1
 141 -18 l 1
 141 446 l 1
141 1153 m 1
 263 1153 l 1
 263 689 l 1
 141 689 l 1
 141 1153 l 1
EndSplineSet
EndChar

StartChar: bullet
Encoding: 396 8226 143
Width: 559
VWidth: 0
Flags: HMW
LayerCount: 2
Fore
SplineSet
80 562 m 0
 80 672 170 754 280 754 c 0
 388 754 481 669 481 562 c 0
 481 455 388 368 280 368 c 0
 170 368 80 452 80 562 c 0
EndSplineSet
EndChar

StartChar: c
Encoding: 67 99 144
Width: 968
VWidth: 0
Flags: HMW
LayerCount: 2
Fore
SplineSet
104 408 m 0
 104 648 279 820 511 820 c 0
 602 820 704 783 739 713 c 1
 735 805 l 1
 868 805 l 1
 868 517 l 1
 739 517 l 1
 708 628.627118644 654 695 519 695 c 1
 344.301960784 695 260 576.598639456 260 400 c 0
 260 225 348.380952381 107 516 107 c 0
 637 107 727 153 788 246 c 1
 877 157 l 1
 800 40 678 -19 512 -19 c 0
 263 -19 104 143 104 408 c 0
EndSplineSet
EndChar

StartChar: caron
Encoding: 354 711 146
Width: 593
VWidth: 0
Flags: HMW
LayerCount: 2
Fore
SplineSet
451 1171 m 1
 555 1171 l 1
 396 912 l 1
 200 912 l 1
 38 1171 l 1
 145 1171 l 1
 299 1017 l 1
 451 1171 l 1
EndSplineSet
EndChar

StartChar: cedilla
Encoding: 117 184 151
Width: 587
VWidth: 0
Flags: HMW
LayerCount: 2
Fore
SplineSet
269 5 m 1
 341 5 l 1
 314 -119 l 1
 399 -129 442 -162 442 -218 c 0
 442 -312 349 -363 230 -363 c 0
 192 -363 158 -360 128 -355 c 1
 128 -263 l 1
 159 -268 187 -271 214 -271 c 0
 277 -271 309 -254 309 -220 c 0
 309 -186 276 -166 211 -160 c 1
 269 5 l 1
EndSplineSet
EndChar

StartChar: cent
Encoding: 97 162 152
Width: 899
VWidth: 0
Flags: HMW
LayerCount: 2
Fore
SplineSet
503 692 m 1
 492 693 482 694 471 694 c 0
 292 694 216 573 216 384 c 0
 216 281 249 205 315 154 c 1
 503 692 l 1
545 810 m 1
 671 1171 l 1
 748 1153 l 1
 617 781 l 1
 654 760 678 737 691 713 c 1
 687 805 l 1
 820 805 l 1
 820 517 l 1
 691 517 l 1
 674 593 637 645 579 672 c 1
 385 118 l 1
 411 111 439 107 468 107 c 0
 589 107 679 153 740 246 c 1
 829 157 l 1
 752 40 630 -19 464 -19 c 0
 423 -19 382 -14 342 -4 c 1
 232 -320 l 1
 156 -303 l 1
 270 23 l 1
 145 85 57 224 57 400 c 0
 57 630 214 820 441 820 c 0
 485 820 520 817 545 810 c 1
EndSplineSet
EndChar

StartChar: circumflex
Encoding: 353 710 153
Width: 593
VWidth: 0
Flags: HMW
LayerCount: 2
Fore
SplineSet
156 1171 m 1
 431 1171 l 1
 535 896 l 1
 387 896 l 1
 294 1126 l 1
 201 896 l 1
 58 896 l 1
 156 1171 l 1
EndSplineSet
EndChar

StartChar: colon
Encoding: 26 58 154
Width: 414
VWidth: 0
Flags: HMW
LayerCount: 2
Fore
SplineSet
93 211 m 1
 320 211 l 1
 320 0 l 1
 93 0 l 1
 93 211 l 1
93 820 m 1
 320 820 l 1
 320 609 l 1
 93 609 l 1
 93 820 l 1
EndSplineSet
EndChar

StartChar: comma
Encoding: 12 44 155
Width: 414
VWidth: 0
Flags: HMW
LayerCount: 2
Fore
SplineSet
86 211 m 1
 313 211 l 1
 313 0 l 1
 314 -162 245 -237 92 -237 c 2
 86 -237 l 1
 86 -150 l 1
 173 -132 207 -100 207 0 c 1
 86 0 l 1
 86 211 l 1
EndSplineSet
EndChar

StartChar: copyright
Encoding: 104 169 156
Width: 1423
VWidth: 0
Flags: HMW
LayerCount: 2
Fore
SplineSet
1141 575 m 1
 1139 857 950 1077 657 1077 c 0
 365 1077 174 858 174 575 c 0
 174 294 366 74 656 74 c 0
 948 74 1139 294 1141 575 c 1
359 586 m 0
 359 745 481 882 636 882 c 0
 716 882 794 860 817 806 c 1
 815 872 l 1
 911 872 l 1
 911 664 l 1
 817 664 l 1
 797 749 744 792 658 792 c 0
 532 792 474 708 474 580 c 0
 474 457 532 368 656 368 c 0
 745 368 811 402 853 469 c 1
 917 404 l 1
 864 319 776 277 653 277 c 2
 648 277 l 2
 466 277 359 411 359 586 c 0
58 575 m 0
 58 917 302 1171 658 1171 c 0
 1014 1171 1258 917 1258 575 c 0
 1258 233 1013 -18 658 -18 c 0
 303 -18 58 233 58 575 c 0
EndSplineSet
EndChar

StartChar: currency
Encoding: 99 164 157
Width: 929
VWidth: 0
Flags: HMW
LayerCount: 2
Fore
SplineSet
658 802 m 0
 658 915 589 1006 464 1006 c 0
 344 1006 270 917 270 802 c 0
 270 689 349 600 465 600 c 0
 582 600 658 689 658 802 c 0
652 1069 m 1
 740 1157 l 1
 809 1088 l 1
 726 1005 l 1
 774 948 798 882 798 806 c 0
 798 730 773 662 724 603 c 1
 809 519 l 1
 740 451 l 1
 650 539 l 1
 597 504 535 486 465 486 c 0
 395 486 333 503 279 538 c 1
 191 451 l 1
 122 519 l 1
 204 601 l 1
 154 661 129 730 129 808 c 0
 129 886 153 952 202 1007 c 1
 122 1088 l 1
 191 1157 l 1
 277 1071 l 1
 334 1106 396 1124 464 1124 c 0
 533 1124 595 1106 652 1069 c 1
EndSplineSet
EndChar

StartChar: d
Encoding: 68 100 158
Width: 1150
VWidth: 0
Flags: HMW
LayerCount: 2
Fore
SplineSet
781 567 m 1
 691.279352227 652.669291339 617.688259109 695 532 695 c 0
 362.507462687 695 260 565.56122449 260 400 c 0
 260 232.428082192 364.525925926 107.003424658 534 107 c 0
 619.693877534 106.998268336 691.273469388 144.324561404 781 222 c 1
 781 567 l 1
619 1153 m 1
 929 1153 l 1
 929 116 l 1
 1081 116 l 1
 1081 0 l 1
 782 0 l 1
 781 99 l 1
 700.537037037 21 619.055555556 -18 506 -18 c 0
 275 -18 104 152 104 390 c 0
 104 629 264 820 500 820 c 0
 615 820 699 784 781 713 c 1
 781 1037 l 1
 619 1037 l 1
 619 1153 l 1
EndSplineSet
EndChar

StartChar: dagger
Encoding: 394 8224 159
Width: 918
VWidth: 0
Flags: HMW
LayerCount: 2
Fore
SplineSet
362 1556 m 1
 559 1556 l 1
 502 1069 l 1
 846 1122 l 1
 846 946 l 1
 502 1004 l 1
 580 772 l 1
 528 460 502 127 502 -227 c 1
 416 -227 l 1
 416 123 391 456 342 772 c 1
 416 1004 l 1
 72 946 l 1
 72 1122 l 1
 416 1069 l 1
 362 1556 l 1
EndSplineSet
EndChar

StartChar: daggerdbl
Encoding: 395 8225 160
Width: 918
VWidth: 0
Flags: HMW
LayerCount: 2
Fore
SplineSet
362 1556 m 1
 559 1556 l 1
 502 1171 l 1
 846 1225 l 1
 846 1049 l 1
 502 1106 l 1
 580 874 l 1
 533 846 502 777 487 668 c 1
 502 554 533 483 580 455 c 1
 502 223 l 1
 846 281 l 1
 846 104 l 1
 502 158 l 1
 559 -227 l 1
 362 -227 l 1
 416 158 l 1
 72 104 l 1
 72 281 l 1
 416 223 l 1
 342 455 l 1
 387 488 417 560 430 670 c 1
 416 785 387 853 342 874 c 1
 416 1106 l 1
 72 1049 l 1
 72 1225 l 1
 416 1171 l 1
 362 1556 l 1
EndSplineSet
EndChar

StartChar: dcroat
Encoding: 206 273 162
Width: 1071
VWidth: 0
Flags: HMW
LayerCount: 2
Fore
SplineSet
748 567 m 1
 659 652 571 694 486 694 c 0
 319 694 218 565 218 400 c 0
 218 233 321 109 488 108 c 0
 573 108 659 145 748 222 c 1
 748 567 l 1
588 1153 m 1
 898 1153 l 1
 898 967 l 1
 999 967 l 1
 999 882 l 1
 898 882 l 1
 898 116 l 1
 1050 116 l 1
 1050 0 l 1
 746 0 l 1
 745 99 l 1
 666 21 571 -18 460 -18 c 0
 229 -18 58 152 58 390 c 0
 58 629 218 820 454 820 c 0
 569 820 668 784 750 713 c 1
 750 882 l 1
 527 882 l 1
 527 967 l 1
 750 967 l 1
 750 1037 l 1
 588 1037 l 1
 588 1153 l 1
EndSplineSet
EndChar

StartChar: degree
Encoding: 111 176 163
Width: 653
VWidth: 0
Flags: HMW
LayerCount: 2
Fore
SplineSet
488 921 m 0
 488 1010 420 1085 329 1085 c 0
 237 1085 164 1014 165 923 c 0
 165 837 225 762 326 762 c 0
 414 762 488 833 488 921 c 0
68 922 m 0
 68 1060 187 1171 327 1171 c 0
 467 1171 585 1061 585 922 c 0
 585 784 466 672 327 673 c 1
 187 673 68 784 68 922 c 0
EndSplineSet
EndChar

StartChar: dieresis
Encoding: 103 168 164
Width: 572
VWidth: 0
Flags: HMW
LayerCount: 2
Fore
SplineSet
371 1101 m 1
 523 1101 l 1
 523 948 l 1
 371 948 l 1
 371 1101 l 1
58 1101 m 1
 212 1101 l 1
 212 948 l 1
 58 948 l 1
 58 1101 l 1
EndSplineSet
EndChar

StartChar: divide
Encoding: 180 247 165
Width: 1164
VWidth: 0
Flags: HMW
LayerCount: 2
Fore
SplineSet
501 944 m 1
 654 944 l 1
 654 792 l 1
 501 792 l 1
 501 944 l 1
501 275 m 1
 654 275 l 1
 654 121 l 1
 501 121 l 1
 501 275 l 1
220 593 m 1
 931 593 l 1
 931 475 l 1
 220 475 l 1
 220 593 l 1
EndSplineSet
EndChar

StartChar: dollar
Encoding: 4 36 166
Width: 940
VWidth: 0
Flags: HMW
LayerCount: 2
Fore
SplineSet
441 685 m 1
 441 1030 l 5
 336 1016 244 966 244 878 c 0
 244 754 327 716 441 685 c 1
746 306 m 0
 746 425 655 467 542 499 c 1
 542 117 l 1
 655 124 746 188 746 306 c 0
441 1305 m 1
 542 1305 l 1
 542 1161 l 1
 605 1146 662 1118 713 1079 c 1
 713 1153 l 1
 848 1153 l 1
 848 826 l 1
 713 826 l 1
 713 908 l 1
 665 974 608 1014 542 1027 c 1
 542 662 l 1
 787 610 910 491 910 306 c 0
 910 110 741 -12 542 -17 c 1
 542 -143 l 1
 441 -143 l 1
 441 -4 l 1
 364 11 294 41 231 87 c 1
 231 0 l 1
 96 0 l 1
 96 387 l 1
 231 387 l 1
 231 271 l 1
 291 196 361 147 441 123 c 1
 441 522 l 1
 237 565 88 644 88 854 c 0
 88 1050 239 1156 441 1169 c 1
 441 1305 l 1
EndSplineSet
EndChar

StartChar: dotaccent
Encoding: 356 729 167
Width: 535
VWidth: 0
Flags: HMW
LayerCount: 2
Fore
SplineSet
177 1038 m 0
 176 1088 219 1125 268 1125 c 0
 317 1125 359 1093 359 1038 c 1
 360 992 325 950 268 950 c 0
 220 950 177 990 177 1038 c 0
EndSplineSet
EndChar

StartChar: dotlessi
Encoding: 238 305 168
Width: 509
VWidth: 0
Flags: HMW
LayerCount: 2
Fore
SplineSet
59 805 m 1
 343 805 l 1
 343 113 l 1
 479 113 l 1
 479 0 l 1
 59 0 l 1
 59 113 l 1
 194 113 l 1
 194 689 l 1
 59 689 l 1
 59 805 l 1
EndSplineSet
EndChar

StartChar: e
Encoding: 69 101 169
Width: 1019
VWidth: 0
Flags: HMW
LayerCount: 2
Fore
SplineSet
782 467 m 1
 766 598.577092511 687 695 541 695 c 4
 384 695 294 610.629955947 269 467 c 1
 782 467 l 1
104 402 m 0
 104 646 293.251716247 820 537 820 c 0
 794 820 926 631 926 365 c 1
 267 365 l 1
 275.935251799 209 380.179856115 108 543 107 c 0
 651 107 737 131 822 224 c 1
 896 139 l 1
 809 35 712 -18 543 -18 c 0
 287.329571106 -18 104 151 104 402 c 0
EndSplineSet
EndChar

StartChar: eight
Encoding: 24 56 177
Width: 1007
VWidth: 0
Flags: HMW
LayerCount: 2
Fore
SplineSet
735 854 m 0
 735 979 632 1037 499 1037 c 0
 368 1037 264 981 264 858 c 0
 264 734 376 667 499 659 c 1
 624 666 735 726 735 854 c 0
757 326 m 0
 757 468 652 533 499 533 c 0
 346 533 241 468 241 326 c 0
 241 191 358 116 499 116 c 0
 640 116 757 191 757 326 c 0
109 867 m 0
 109 1067 288 1170 499 1171 c 1
 710 1170 889 1067 889 867 c 0
 889 710 808 642 695 599 c 1
 822 566 922 472 922 328 c 0
 922 99 736 -18 499 -18 c 0
 269 -18 76 96 76 315 c 0
 76 472 168 564 303 599 c 1
 174 648 109 737 109 867 c 0
EndSplineSet
EndChar

StartChar: ellipsis
Encoding: 397 8230 178
Width: 1242
VWidth: 0
Flags: HMW
LayerCount: 2
Fore
SplineSet
500 211 m 1
 727 211 l 1
 727 0 l 1
 500 0 l 1
 500 211 l 1
86 211 m 1
 313 211 l 1
 313 0 l 1
 86 0 l 1
 86 211 l 1
914 211 m 1
 1141 211 l 1
 1141 0 l 1
 914 0 l 1
 914 211 l 1
EndSplineSet
EndChar

StartChar: emdash
Encoding: 387 8212 180
Width: 1648
VWidth: 0
Flags: HMW
LayerCount: 2
Fore
SplineSet
0 485 m 1
 1648 485 l 1
 1648 368 l 1
 0 368 l 1
 0 485 l 1
EndSplineSet
EndChar

StartChar: endash
Encoding: 386 8211 181
Width: 874
VWidth: 0
Flags: HMW
LayerCount: 2
Fore
SplineSet
0 485 m 5
 874 485 l 5
 874 368 l 5
 0 368 l 5
 0 485 l 5
EndSplineSet
EndChar

StartChar: equal
Encoding: 29 61 183
Width: 1145
VWidth: 0
Flags: HMW
LayerCount: 2
Fore
SplineSet
133 590 m 1
 1012 590 l 1
 1012 469 l 1
 133 469 l 1
 133 590 l 1
133 993 m 1
 1012 993 l 1
 1012 872 l 1
 133 872 l 1
 133 993 l 1
EndSplineSet
EndChar

StartChar: eth
Encoding: 173 240 184
Width: 947
VWidth: 0
Flags: HMW
LayerCount: 2
Fore
SplineSet
710 509 m 1
 636 564 544 592 433 592 c 0
 310 592 230 490 230 362 c 0
 230 217 308 116 460 116 c 0
 652 116 695 304 710 509 c 1
154 1082 m 1
 229 1141 329 1171 455 1171 c 0
 604 1171 714 1105 785 974 c 1
 946 1006 l 1
 967 905 l 1
 825 877 l 1
 853 790 867 693 867 588 c 0
 867 247 765 -18 454 -18 c 0
 232 -18 85 144 85 362 c 0
 85 580 223 721 444 722 c 0
 557 722 648 695 716 639 c 1
 716 716 706 786 686 849 c 1
 460 804 l 1
 440 905 l 1
 640 945 l 1
 593 1012 526 1045 440 1045 c 0
 354 1045 278 1020 209 969 c 1
 154 1082 l 1
EndSplineSet
EndChar

StartChar: exclam
Encoding: 1 33 185
Width: 466
VWidth: 0
Flags: HMW
LayerCount: 2
Fore
SplineSet
127 212 m 1
 339 212 l 1
 339 0 l 1
 127 0 l 1
 127 212 l 1
147 1153 m 1
 319 1153 l 1
 319 821 l 1
 267 324 l 5
 199 324 l 1
 147 821 l 1
 147 1153 l 1
EndSplineSet
EndChar

StartChar: exclamdown
Encoding: 96 161 186
Width: 466
VWidth: 0
Flags: HMW
LayerCount: 2
Fore
SplineSet
127 1171 m 1
 339 1171 l 1
 339 959 l 1
 127 959 l 1
 127 1171 l 1
189 847 m 1
 277 847 l 1
 319 350 l 1
 319 0 l 1
 147 0 l 1
 147 350 l 1
 189 847 l 1
EndSplineSet
EndChar

StartChar: f
Encoding: 70 102 187
Width: 656
VWidth: 0
Flags: HMW
LayerCount: 2
Fore
SplineSet
230 943 m 2
 230 1084 333 1171 481 1171 c 0
 609 1171 678 1117 701 996 c 1
 591 963 l 1
 574 1026 538 1054 490 1054 c 0
 428.348623853 1054 378 1013 378 934 c 6
 378 805 l 5
 541 805 l 1
 541 689 l 1
 378 689 l 5
 378 116 l 5
 540 116 l 1
 540 0 l 1
 89 0 l 1
 89 116 l 1
 230 116 l 1
 230 689 l 1
 101 689 l 1
 101 805 l 1
 230 805 l 1
 230 943 l 2
EndSplineSet
EndChar

StartChar: five
Encoding: 21 53 188
Width: 947
VWidth: 0
Flags: HMW
LayerCount: 2
Fore
SplineSet
155 1153 m 1
 800 1153 l 1
 800 916 l 1
 662 916 l 1
 662 1037 l 1
 283 1037 l 1
 272 913 263 776 254 651 c 1
 308 726 390 764 502 764 c 0
 725 764 873 595 873 370 c 0
 873 134 724 -18 484 -18 c 0
 243 -18 108 106 92 329 c 1
 235 330 l 1
 256 213 327 109 452 109 c 0
 625 109 714 200 714 366 c 0
 714 515 627 625 485 625 c 0
 396 625 313 587 238 512 c 1
 155 557 l 1
 155 1153 l 1
EndSplineSet
EndChar

StartChar: florin
Encoding: 309 402 189
Width: 916
VWidth: 0
Flags: HMW
LayerCount: 2
Fore
SplineSet
400 879 m 1
 433 1042 517 1172 698 1172 c 0
 814 1172 916 1125 916 939 c 1
 783 939 l 1
 783 1040 757 1090 705 1090 c 0
 607 1090 585 992 565 892 c 2
 532 720 l 1
 744 720 l 1
 727 636 l 1
 514 636 l 1
 401 60 l 2
 354 -183 267 -320 52 -320 c 0
 12 -320 -23 -316 -54 -307 c 1
 -36 -223 l 1
 4 -231 33 -235 52 -235 c 0
 180 -235 212 -85 241 61 c 2
 355 636 l 1
 190 636 l 1
 207 720 l 1
 369 720 l 1
 400 879 l 1
EndSplineSet
EndChar

StartChar: four
Encoding: 20 52 190
Width: 875
VWidth: 0
Flags: HMW
LayerCount: 2
Fore
SplineSet
483 436 m 1
 483 947 l 1
 168 436 l 1
 483 436 l 1
487 1153 m 1
 625 1153 l 1
 625 436 l 1
 815 436 l 1
 815 315 l 1
 625 315 l 1
 625 116 l 1
 774 116 l 1
 774 0 l 1
 319 0 l 1
 319 116 l 1
 483 116 l 1
 483 315 l 1
 24 315 l 1
 24 436 l 1
 487 1153 l 1
EndSplineSet
EndChar

StartChar: fraction
Encoding: 401 8260 191
Width: 793
VWidth: 0
Flags: HMW
LayerCount: 2
Fore
SplineSet
563 1171 m 1
 692 1171 l 1
 258 -18 l 1
 129 -18 l 1
 563 1171 l 1
EndSplineSet
EndChar

StartChar: g
Encoding: 71 103 192
Width: 1124
VWidth: 0
Flags: HMW
LayerCount: 2
Fore
SplineSet
780 571 m 1
 693.312 653.666666667 612.672 695 528 695 c 4
 358.46969697 695 260 565.56122449 260 400 c 0
 260 237 363.528089888 118 531 118 c 0
 659.028340081 118 736.651821862 171 780 229 c 1
 780 571 l 1
104 398 m 0
 104 624 264 820 521 820 c 0
 634.879377432 820 696.354085603 783 780 709 c 1
 780 805 l 1
 1079 805 l 1
 1079 689 l 1
 928 689 l 1
 928 -3 l 2
 928 -221 748 -320 516 -320 c 0
 400 -320 305 -298 231 -253 c 1
 278 -143 l 1
 347 -178 424 -196 508 -196 c 0
 646.014814815 -196 780 -153 780 -27 c 2
 780 93 l 1
 756.818897638 65 670.141732283 0 524 0 c 0
 257 0 104 182 104 398 c 0
EndSplineSet
EndChar

StartChar: germandbls
Encoding: 156 223 197
Width: 1114
VWidth: 0
Flags: HMW
LayerCount: 2
Fore
SplineSet
222 786 m 2
 222 1029 343 1171 585 1171 c 0
 777 1171 924 1071 925 889 c 0
 925 760 866 678 748 641 c 1
 950 608 1102 459 1012 208 c 0
 960 64 815 0 613 0 c 1
 613 116 l 1
 797 116 889 193 889 346 c 0
 890 501 757 571 573 569 c 1
 573 675 l 1
 702 675 782 753 782 874 c 0
 782 983 706 1047 596 1047 c 0
 440 1047 362 961 362 790 c 2
 362 116 l 1
 493 116 l 1
 493 0 l 1
 72 0 l 1
 72 116 l 1
 222 116 l 1
 222 786 l 2
EndSplineSet
EndChar

StartChar: grave
Encoding: 64 96 198
Width: 562
VWidth: 0
Flags: HMW
LayerCount: 2
Fore
SplineSet
105 1171 m 1
 312 1171 l 1
 411 914 l 1
 292 914 l 1
 105 1171 l 1
EndSplineSet
EndChar

StartChar: greater
Encoding: 30 62 199
Width: 1145
VWidth: 0
Flags: HMW
LayerCount: 2
Fore
SplineSet
133 1104 m 1
 133 1241 l 1
 1012 768 l 1
 1012 696 l 1
 133 225 l 1
 133 362 l 1
 821 731 l 1
 133 1104 l 1
EndSplineSet
EndChar

StartChar: greaterequal
Encoding: 412 8805 200
Width: 1145
VWidth: 0
Flags: HMW
LayerCount: 2
Fore
SplineSet
133 121 m 1
 1012 121 l 1
 1012 0 l 1
 133 0 l 1
 133 121 l 1
133 1104 m 1
 133 1241 l 1
 1012 768 l 1
 1012 696 l 1
 133 225 l 1
 133 362 l 1
 821 731 l 1
 133 1104 l 1
EndSplineSet
EndChar

StartChar: guillemotleft
Encoding: 106 171 201
Width: 1053
VWidth: 0
Flags: HMW
LayerCount: 2
Fore
SplineSet
446 942 m 1
 549 942 l 1
 342 553 l 1
 549 164 l 1
 446 164 l 1
 133 520 l 1
 133 586 l 1
 446 942 l 1
817 942 m 1
 920 942 l 1
 713 553 l 1
 920 164 l 1
 817 164 l 1
 504 520 l 1
 504 586 l 1
 817 942 l 1
EndSplineSet
EndChar

StartChar: guillemotright
Encoding: 120 187 202
Width: 1053
VWidth: 0
Flags: HMW
LayerCount: 2
Fore
SplineSet
133 942 m 1
 236 942 l 1
 549 586 l 1
 549 520 l 1
 236 164 l 1
 133 164 l 1
 340 553 l 1
 133 942 l 1
504 942 m 1
 606 942 l 1
 920 586 l 1
 920 520 l 1
 606 164 l 1
 504 164 l 1
 711 553 l 1
 504 942 l 1
EndSplineSet
EndChar

StartChar: guilsinglleft
Encoding: 399 8249 203
Width: 682
VWidth: 0
Flags: HMW
LayerCount: 2
Fore
SplineSet
446 942 m 1
 549 942 l 1
 342 553 l 1
 549 164 l 1
 446 164 l 1
 133 520 l 1
 133 586 l 1
 446 942 l 1
EndSplineSet
EndChar

StartChar: guilsinglright
Encoding: 400 8250 204
Width: 682
VWidth: 0
Flags: HMW
LayerCount: 2
Fore
SplineSet
135 942 m 1
 238 942 l 1
 551 586 l 1
 551 520 l 1
 238 164 l 1
 135 164 l 1
 342 553 l 1
 135 942 l 1
EndSplineSet
EndChar

StartChar: h
Encoding: 72 104 205
Width: 1167
VWidth: 0
Flags: HMW
LayerCount: 2
Fore
SplineSet
113 1153 m 1
 411 1153 l 1
 411 706 l 1
 486.260416667 767 569.548611111 820 700 820 c 0
 870 820 971 732 971 556 c 2
 971 116 l 1
 1115 116 l 1
 1115 0 l 1
 721 0 l 1
 721 116 l 1
 823 116 l 1
 823 528 l 2
 823 639 776 694 682 694 c 0
 587.651851852 694 494.307407407 646 411 587 c 1
 411 116 l 1
 557 116 l 1
 557 0 l 1
 111 0 l 1
 111 116 l 1
 263 116 l 1
 263 1037 l 1
 113 1037 l 1
 113 1153 l 1
EndSplineSet
EndChar

StartChar: hbar
Encoding: 228 295 206
Width: 1024
VWidth: 0
Flags: HMW
LayerCount: 2
Fore
SplineSet
23 1153 m 1
 322 1153 l 1
 322 967 l 1
 462 967 l 1
 462 882 l 1
 322 882 l 1
 322 726 l 1
 417 789 518 820 626 820 c 0
 796 820 881 732 881 556 c 2
 881 116 l 1
 1025 116 l 1
 1025 0 l 1
 631 0 l 1
 631 116 l 1
 733 116 l 1
 733 528 l 2
 733 639 686 694 592 694 c 0
 498 694 409 665 322 607 c 1
 322 116 l 1
 467 116 l 1
 467 0 l 1
 21 0 l 1
 21 116 l 1
 173 116 l 1
 173 882 l 1
 46 882 l 1
 46 967 l 1
 173 967 l 1
 173 1037 l 1
 23 1037 l 1
 23 1153 l 1
EndSplineSet
EndChar

StartChar: hungarumlaut
Encoding: 360 733 208
Width: 587
VWidth: 0
Flags: HMW
LayerCount: 2
Fore
SplineSet
377 1171 m 1
 567 1171 l 1
 382 899 l 1
 287 899 l 1
 377 1171 l 1
116 1171 m 1
 306 1171 l 1
 121 899 l 1
 25 899 l 1
 116 1171 l 1
EndSplineSet
EndChar

StartChar: hyphen
Encoding: 13 45 209
Width: 719
VWidth: 0
Flags: HMW
LayerCount: 2
Fore
SplineSet
101 484 m 1
 618 484 l 1
 618 340 l 1
 101 340 l 1
 101 484 l 1
EndSplineSet
EndChar

StartChar: i
Encoding: 73 105 210
Width: 626
VWidth: 0
Flags: HMW
LayerCount: 2
Fore
SplineSet
265 1066 m 0
 265 1120 303 1152 367 1152 c 0
 408 1152 448 1109 448 1066 c 0
 448 1021 408 979 366 979 c 0
 306 979 265 1010 265 1066 c 0
111 805 m 1
 432 805 l 1
 432 116 l 1
 600 116 l 1
 600 0 l 1
 111 0 l 1
 111 116 l 1
 284 116 l 5
 284 689 l 5
 111 689 l 1
 111 805 l 1
EndSplineSet
EndChar

StartChar: infinity
Encoding: 407 8734 218
Width: 1448
VWidth: 0
Flags: HMW
LayerCount: 2
Fore
SplineSet
1264 594 m 0
 1264 727 1191 860 1066 860 c 0
 1010 860 961 838 920 794 c 0
 879 750 838 682 797 592 c 1
 835 503 875 436 916 391 c 0
 957 346 1007 324 1066 324 c 0
 1196 324 1264 456 1264 594 c 0
532 798 m 0
 490 843 440 866 382 866 c 0
 255 866 186 730 186 596 c 0
 186 475 224 394 300 352 c 1
 325 337 359 330 400 330 c 0
 488 330 572 419 651 598 c 1
 614 687 574 753 532 798 c 0
72 592 m 0
 72 804 189 990 393 989 c 0
 536 989 651 908 737 745 c 1
 821 904 929 983 1061 983 c 0
 1260 983 1376 806 1376 598 c 0
 1376 391 1258 201 1059 201 c 0
 920 201 804 284 711 451 c 1
 626 288 520 207 393 207 c 0
 190 207 72 380 72 592 c 0
EndSplineSet
EndChar

StartChar: integral
Encoding: 408 8747 219
Width: 883
VWidth: 0
Flags: HMW
LayerCount: 2
Fore
SplineSet
359 727 m 1
 378 1022 473 1170 643 1171 c 0
 774 1171 839 1131 839 1052 c 0
 839 989 797 958 712 958 c 1
 712 1035 701 1087 641 1087 c 0
 613 1087 592 1074 578 1050 c 0
 564 1026 550 978 538 904 c 0
 526 830 520 719 520 571 c 0
 520 326 525 248 508 66 c 1
 495 -60 467 -156 424 -222 c 0
 381 -288 311 -320 216 -320 c 0
 93 -320 31 -280 31 -201 c 0
 31 -138 73 -106 157 -106 c 1
 158 -195 171 -237 245 -237 c 0
 294 -237 324 -190 336 -95 c 0
 345 -29 350 102 350 297 c 0
 350 492 352 636 359 727 c 1
EndSplineSet
EndChar

StartChar: j
Encoding: 74 106 222
Width: 559
VWidth: 0
Flags: HMW
LayerCount: 2
Fore
SplineSet
230 1066 m 0
 230 1116 271 1153 322 1153 c 0
 373 1153 414 1116 414 1066 c 0
 414 1016 373 979 322 979 c 0
 271 979 230 1016 230 1066 c 0
82 805 m 1
 401 805 l 1
 401 19 l 2
 401 -221 339 -303 118 -303 c 2
 27 -303 l 1
 27 -179 l 1
 134 -179 l 2
 234.534482759 -179 253 -113 253 -8 c 2
 253 689 l 1
 82 689 l 1
 82 805 l 1
EndSplineSet
EndChar

StartChar: k
Encoding: 75 107 224
Width: 1105
VWidth: 0
Flags: HMW
LayerCount: 2
Fore
SplineSet
99 1153 m 1
 400 1153 l 1
 400 430 l 1
 722 689 l 1
 590 689 l 1
 590 805 l 1
 1037 805 l 1
 1037 689 l 1
 898 689 l 1
 573 415 l 1
 905 116 l 1
 1045 116 l 1
 1045 0 l 1
 624 0 l 1
 624 116 l 1
 720 116 l 1
 400 405 l 1
 400 116 l 1
 505 116 l 1
 505 0 l 1
 120 0 l 1
 120 116 l 1
 252 116 l 1
 252 1037 l 1
 99 1037 l 1
 99 1153 l 1
EndSplineSet
EndChar

StartChar: kgreenlandic
Encoding: 245 312 226
Width: 995
VWidth: 0
Flags: HMW
LayerCount: 2
Fore
SplineSet
511 805 m 1
 958 805 l 1
 958 689 l 1
 826 689 l 1
 494 405 l 1
 836 116 l 1
 966 116 l 1
 966 0 l 1
 545 0 l 1
 545 116 l 1
 651 116 l 1
 321 395 l 1
 321 116 l 1
 426 116 l 1
 426 0 l 1
 20 0 l 1
 20 116 l 1
 173 116 l 1
 173 689 l 1
 20 689 l 1
 20 805 l 1
 321 805 l 1
 321 420 l 1
 650 689 l 1
 511 689 l 1
 511 805 l 1
EndSplineSet
EndChar

StartChar: l
Encoding: 76 108 227
Width: 610
VWidth: 0
Flags: HMW
LayerCount: 2
Fore
SplineSet
111 1153 m 1
 409 1153 l 1
 409 116 l 1
 558 116 l 1
 558 0 l 1
 116 0 l 1
 116 116 l 1
 261 116 l 5
 261 1037 l 5
 111 1037 l 1
 111 1153 l 1
EndSplineSet
EndChar

StartChar: less
Encoding: 28 60 232
Width: 1145
VWidth: 0
Flags: HMW
LayerCount: 2
Fore
SplineSet
133 768 m 1
 1012 1241 l 1
 1012 1104 l 1
 324 731 l 1
 1012 362 l 1
 1012 225 l 1
 133 696 l 1
 133 768 l 1
EndSplineSet
EndChar

StartChar: lessequal
Encoding: 411 8804 233
Width: 1145
VWidth: 0
Flags: HMW
LayerCount: 2
Fore
SplineSet
133 121 m 1
 1012 121 l 1
 1012 0 l 1
 133 0 l 1
 133 121 l 1
133 768 m 1
 1012 1241 l 1
 1012 1104 l 1
 324 731 l 1
 1012 362 l 1
 1012 225 l 1
 133 696 l 1
 133 768 l 1
EndSplineSet
EndChar

StartChar: logicalnot
Encoding: 107 172 234
Width: 1113
VWidth: 0
Flags: HMW
LayerCount: 2
Fore
SplineSet
56 842 m 1
 993 842 l 1
 993 304 l 1
 876 304 l 1
 876 724 l 1
 56 724 l 1
 56 842 l 1
EndSplineSet
EndChar

StartChar: lozenge
Encoding: 413 9674 235
Width: 1003
VWidth: 0
Flags: HMW
LayerCount: 2
Fore
SplineSet
764 581 m 1
 504 999 l 1
 240 581 l 1
 504 147 l 1
 764 581 l 1
461 1152 m 1
 543 1152 l 1
 902 581 l 1
 543 0 l 1
 461 0 l 1
 102 579 l 1
 461 1152 l 1
EndSplineSet
EndChar

StartChar: lslash
Encoding: 255 322 236
Width: 487
VWidth: 0
Flags: HMW
LayerCount: 2
Fore
SplineSet
24 1153 m 1
 322 1153 l 1
 322 690 l 1
 472 748 l 1
 472 612 l 1
 322 556 l 1
 322 116 l 1
 455 116 l 1
 455 0 l 1
 21 0 l 1
 21 116 l 1
 173 116 l 1
 173 501 l 1
 36 450 l 1
 36 579 l 1
 173 632 l 1
 173 1037 l 1
 24 1037 l 1
 24 1153 l 1
EndSplineSet
EndChar

StartChar: m
Encoding: 77 109 237
Width: 1647
VWidth: 0
Flags: HMW
LayerCount: 2
Fore
SplineSet
908 680 m 1
 1019.51202749 773 1117.84536082 820 1203 820 c 0
 1366 820 1450 725 1450 568 c 2
 1450 107 l 1
 1595 107 l 1
 1595 0 l 1
 1190 0 l 1
 1190 107 l 1
 1302 107 l 1
 1302 537 l 2
 1302 642 1259.3359375 694 1175 694 c 0
 1100.79338843 694 983.892561983 631 929 561 c 1
 929 116 l 1
 1058 116 l 1
 1058 0 l 1
 669 0 l 1
 669 116 l 1
 781 116 l 1
 781 534 l 2
 781 641 738 694 652 694 c 0
 544.675 694 475.825 633 409 571 c 1
 409 116 l 1
 537 116 l 1
 537 0 l 1
 111 0 l 1
 111 116 l 1
 261 116 l 1
 261 689 l 1
 118 689 l 1
 118 805 l 1
 404 805 l 1
 409 698 l 1
 507.031914894 779 602.031914894 820 694 820 c 0
 799.036697248 820 870.697247706 773 908 680 c 1
EndSplineSet
EndChar

StartChar: macron
Encoding: 110 175 238
Width: 593
VWidth: 0
Flags: HMW
LayerCount: 2
Fore
SplineSet
101 1171 m 1
 477 1171 l 1
 477 1063 l 1
 101 1063 l 1
 101 1171 l 1
EndSplineSet
EndChar

StartChar: minus
Encoding: 405 8722 239
Width: 931
VWidth: 0
Flags: HMW
LayerCount: 2
Fore
SplineSet
56 842 m 1
 876 842 l 1
 876 724 l 1
 56 724 l 1
 56 842 l 1
EndSplineSet
EndChar

StartChar: multiply
Encoding: 148 215 240
Width: 929
VWidth: 0
Flags: HMW
LayerCount: 2
Fore
SplineSet
473 517 m 1
 684 727 l 1
 767 644 l 1
 556 434 l 1
 767 225 l 1
 683 143 l 1
 473 352 l 1
 264 143 l 1
 180 225 l 1
 390 434 l 1
 180 644 l 1
 263 727 l 1
 473 517 l 1
EndSplineSet
EndChar

StartChar: n
Encoding: 78 110 241
Width: 1125
VWidth: 0
Flags: HMW
LayerCount: 2
Fore
SplineSet
408 691 m 1
 503.032967033 796 603.120879121 820 684 820 c 0
 843 820 928 719 929 562 c 1
 928 116 l 1
 1073 116 l 1
 1073 0 l 1
 671 0 l 1
 671 116 l 1
 780 116 l 5
 780 507 l 6
 780 614 757.184 694 656 694 c 0
 578.057142857 694 495.053061224 655 408 572 c 1
 408 116 l 1
 556 116 l 1
 556 0 l 1
 117 0 l 1
 117 116 l 1
 260 116 l 1
 260 689 l 1
 111 689 l 1
 111 805 l 1
 404 805 l 1
 408 691 l 1
EndSplineSet
EndChar

StartChar: nine
Encoding: 25 57 245
Width: 949
VWidth: 0
Flags: HMW
LayerCount: 2
Fore
SplineSet
703 694 m 1
 682 905 630 1036 455 1036 c 0
 307 1036 223 937 223 791 c 0
 223 666 296 572 432 572 c 0
 540 572 653 637 703 694 c 1
78 791 m 0
 78 1011 223 1171 447 1171 c 0
 754 1171 860 913 860 582 c 0
 860 241 720 -18 455 -18 c 0
 246 -18 104 104 98 305 c 1
 235 305 l 1
 251 197 312 106 442 106 c 0
 620 106 709 248 709 534 c 1
 640 465 549 430 436 430 c 0
 215 430 78 572 78 791 c 0
EndSplineSet
EndChar

StartChar: notequal
Encoding: 410 8800 246
Width: 1145
VWidth: 0
Flags: HMW
LayerCount: 2
Fore
SplineSet
637 1212 m 1
 756 1212 l 1
 698 993 l 1
 1012 993 l 1
 1012 872 l 1
 668 872 l 1
 594 590 l 1
 1012 590 l 1
 1012 469 l 1
 563 469 l 1
 508 250 l 1
 387 250 l 1
 444 469 l 1
 133 469 l 1
 133 590 l 1
 475 590 l 1
 549 872 l 1
 133 872 l 1
 133 993 l 1
 580 993 l 1
 637 1212 l 1
EndSplineSet
EndChar

StartChar: numbersign
Encoding: 3 35 248
Width: 1186
VWidth: 0
Flags: HMW
LayerCount: 2
Fore
SplineSet
735 442 m 1
 765 733 l 1
 439 733 l 1
 408 442 l 1
 735 442 l 1
819 1171 m 1
 942 1171 l 1
 905 844 l 1
 1102 844 l 1
 1090 733 l 1
 889 733 l 1
 860 442 l 1
 1082 442 l 1
 1070 333 l 1
 844 333 l 1
 809 0 l 1
 688 0 l 1
 719 333 l 1
 392 333 l 1
 357 0 l 1
 236 0 l 1
 268 333 l 1
 90 333 l 1
 102 442 l 1
 284 442 l 1
 317 733 l 1
 110 733 l 1
 122 844 l 1
 333 844 l 1
 367 1171 l 1
 490 1171 l 1
 456 844 l 1
 781 844 l 1
 819 1171 l 1
EndSplineSet
EndChar

StartChar: o
Encoding: 79 111 249
Width: 1061
VWidth: 0
Flags: HMW
LayerCount: 2
Fore
SplineSet
801 401 m 0
 801 566.563139932 695.447761194 695 529 695 c 0
 364.161654135 695 260 565.559726962 260 401 c 0
 260 236 365.172932331 108 529 107 c 1
 694.432835821 108 801 235 801 401 c 0
104 406 m 0
 104 647 286 820 531 820 c 0
 779 820 957 645 957 402 c 0
 957 158 777 -18 529 -18 c 0
 280 -18 104 161 104 406 c 0
EndSplineSet
EndChar

StartChar: oe
Encoding: 269 339 254
Width: 1648
VWidth: 0
Flags: HMW
LayerCount: 2
Fore
SplineSet
1445 467 m 1
 1429 598 1337 694 1191 694 c 0
 1035 694 937 611 914 467 c 1
 1445 467 l 1
750 401 m 0
 750 566 646 694 482 694 c 0
 319 694 216 565 216 401 c 0
 216 236 320 108 482 107 c 1
 645 108 750 235 750 401 c 0
834 630 m 1
 901 732 1023 820 1182 820 c 0
 1446 820 1588 627 1589 365 c 1
 910 365 l 1
 918 209 1028 107 1192 107 c 0
 1299 107 1406 157 1458 233 c 1
 1560 157 l 1
 1484 40 1362 -18 1193 -18 c 0
 1021 -18 903 64 833 172 c 1
 752 45 635 -18 482 -18 c 0
 235 -18 57 159 57 402 c 0
 56 645 236 820 484 820 c 0
 651 820 767 736 834 630 c 1
EndSplineSet
EndChar

StartChar: ogonek
Encoding: 358 731 255
Width: 587
VWidth: 0
Flags: HMW
LayerCount: 2
Fore
SplineSet
237 0 m 1
 311 0 l 1
 281 -41 266 -83 266 -126 c 0
 266 -197 299 -233 364 -233 c 0
 393 -233 422 -226 451 -213 c 1
 451 -316 l 1
 410 -346 358 -353 326 -353 c 0
 215 -353 137 -285 137 -176 c 0
 137 -123 164 -50 237 0 c 1
EndSplineSet
EndChar

StartChar: one
Encoding: 17 49 259
Width: 584
VWidth: 0
Flags: HMW
LayerCount: 2
Fore
SplineSet
57 1153 m 1
 380 1153 l 1
 380 116 l 1
 534 116 l 1
 534 0 l 1
 65 0 l 1
 65 116 l 1
 231 116 l 1
 231 1037 l 1
 57 1037 l 1
 57 1153 l 1
EndSplineSet
EndChar

StartChar: onehalf
Encoding: 122 189 260
Width: 1690
VWidth: 0
Flags: HMW
LayerCount: 2
Fore
SplineSet
1042 539 m 1
 1042 750 1130 856 1307 856 c 0
 1473 856 1590 773 1590 624 c 0
 1590 368 1190 302 1141 86 c 1
 1492 86 l 1
 1492 266 l 1
 1586 266 l 1
 1586 -15 l 1
 1020 -15 l 1
 1020 120 1077 235 1191 328 c 0
 1291 410 1466 489 1466 621 c 0
 1466 710 1413 755 1308 755 c 0
 1179 754 1149 679 1149 539 c 1
 1042 539 l 1
57 1153 m 1
 297 1153 l 1
 297 392 l 1
 411 392 l 1
 411 299 l 1
 63 299 l 1
 63 392 l 1
 186 392 l 1
 186 1059 l 1
 57 1059 l 1
 57 1153 l 1
915 1170 m 1
 1004 1170 l 1
 590 0 l 1
 500 0 l 1
 915 1170 l 1
EndSplineSet
EndChar

StartChar: onequarter
Encoding: 121 188 261
Width: 1665
VWidth: 0
Flags: HMW
LayerCount: 2
Fore
SplineSet
1313 352 m 1
 1313 765 l 1
 1059 352 l 1
 1313 352 l 1
915 1170 m 1
 1004 1170 l 1
 590 0 l 1
 500 0 l 1
 915 1170 l 1
57 1153 m 1
 297 1153 l 1
 297 392 l 1
 411 392 l 1
 411 299 l 1
 63 299 l 1
 63 392 l 1
 186 392 l 1
 186 1059 l 1
 57 1059 l 1
 57 1153 l 1
1316 931 m 1
 1428 931 l 1
 1428 352 l 1
 1581 352 l 1
 1581 254 l 1
 1428 254 l 1
 1428 94 l 1
 1548 94 l 1
 1548 0 l 1
 1181 0 l 1
 1181 94 l 1
 1313 94 l 1
 1313 254 l 1
 942 254 l 1
 942 352 l 1
 1316 931 l 1
EndSplineSet
EndChar

StartChar: ordfeminine
Encoding: 105 170 262
Width: 696
VWidth: 0
Flags: HMW
LayerCount: 2
Fore
SplineSet
442 820 m 1
 402 820 352 832 305 832 c 0
 196 832 142 794 142 717 c 0
 142 657 191 622 257 622 c 0
 332 622 393 644 442 689 c 1
 442 820 l 1
72 1087 m 1
 128 1143 203 1172 298 1172 c 0
 459 1172 554 1114 554 971 c 2
 554 640 l 1
 662 640 l 1
 662 555 l 1
 454 555 l 1
 453 617 l 1
 380 566 311 540 246 540 c 2
 244 540 l 2
 133 540 36 608 36 709 c 0
 36 854 133 908 271 908 c 0
 335 908 392 903 442 893 c 1
 442 966 l 2
 442 1043 395 1082 302 1082 c 0
 229 1082 176 1059 141 1014 c 1
 72 1087 l 1
EndSplineSet
EndChar

StartChar: ordmasculine
Encoding: 119 186 263
Width: 704
VWidth: 0
Flags: HMW
LayerCount: 2
Fore
SplineSet
524 907 m 0
 524 1003 448 1074 352 1074 c 0
 255 1074 180 1003 180 907 c 0
 180 810 256 738 353 738 c 0
 449 738 524 810 524 907 c 0
68 907 m 0
 68 1063 197 1170 353 1171 c 1
 510 1171 637 1062 637 907 c 0
 637 753 510 643 353 643 c 2
 351 643 l 2
 196 643 68 754 68 907 c 0
EndSplineSet
EndChar

StartChar: oslash
Encoding: 181 248 264
Width: 966
VWidth: 0
Flags: HMW
LayerCount: 2
Fore
SplineSet
750 407 m 0
 750 496 721 569 663 624 c 1
 404 117 l 1
 427 110 456 107 491 107 c 0
 651 107 750 241 750 407 c 0
575 678 m 1
 546 689.6875 513 695 476 695 c 4
 311 695 216 560.562091503 216 388 c 0
 216 295 248 221 312 166 c 1
 575 678 l 1
635 796 m 1
 702 926 l 1
 796 883 l 1
 728 751 l 1
 828 687 910 566 910 414 c 0
 910 160 746 -18 496 -18 c 0
 440 -18 389 -12 344 1 c 1
 279 -126 l 1
 185 -83 l 1
 249 43 l 1
 145 107 57 233 57 388 c 0
 57 644 228 820 484 820 c 0
 539 820 589 812 635 796 c 1
EndSplineSet
EndChar

StartChar: p
Encoding: 80 112 266
Width: 1173
VWidth: 0
Flags: HMW
LayerCount: 2
Fore
SplineSet
914 396 m 0
 914 566.570469799 821 695 649 695 c 4
 562.355102041 695 486.665306122 653.666666667 405 571 c 1
 405 211 l 1
 480.694779116 133 568.341365462 107 653 107 c 0
 822 107 914 229 914 396 c 0
397 688 m 1
 466.75177305 774 561.414893617 820 678 820 c 0
 913.601023018 820 1070 635 1070 400 c 0
 1070 147 904.584382872 -18 672 -18 c 0
 535.51119403 -18 449.832089552 33 405 87 c 1
 405 -179 l 1
 569 -179 l 1
 569 -303 l 1
 104 -303 l 1
 104 -179 l 1
 257 -179 l 1
 257 689 l 1
 116 689 l 1
 116 805 l 1
 389 805 l 1
 397 688 l 1
EndSplineSet
EndChar

StartChar: paragraph
Encoding: 116 182 267
Width: 1096
VWidth: 0
Flags: HMW
LayerCount: 2
Fore
SplineSet
451 1171 m 2
 1020 1171 l 1
 1020 1037 l 1
 882 1037 l 1
 882 -320 l 1
 747 -320 l 1
 747 1037 l 1
 546 1037 l 1
 546 -320 l 1
 411 -320 l 1
 411 453 l 1
 198 459 50 599 50 812 c 0
 50 1036 214 1171 451 1171 c 2
EndSplineSet
EndChar

StartChar: parenleft
Encoding: 8 40 268
Width: 522
VWidth: 0
Flags: HMW
LayerCount: 2
Fore
SplineSet
34 518 m 0
 34 858 228 1062 476 1165 c 1
 476 1037 l 1
 289 925 195 752 195 517 c 0
 195 280 289 108 476 -1 c 1
 476 -132 l 1
 215 -25 34 175 34 518 c 0
EndSplineSet
EndChar

StartChar: parenright
Encoding: 9 41 269
Width: 522
VWidth: 0
Flags: HMW
LayerCount: 2
Fore
SplineSet
34 1037 m 1
 34 1165 l 1
 297 1056 476 859 476 518 c 0
 476 179 281 -31 34 -132 c 1
 34 -1 l 1
 221 108 315 280 315 517 c 0
 315 752 221 925 34 1037 c 1
EndSplineSet
EndChar

StartChar: percent
Encoding: 5 37 270
Width: 1585
VWidth: 0
Flags: HMW
LayerCount: 2
Fore
SplineSet
1259 -19 m 0
 1098 -19 1001 101 999 287 c 0
 998 466 1094 594 1259 594 c 4
 1423 594 1519 465 1519 287 c 0
 1520 108 1425 -19 1259 -19 c 0
1380 287 m 0
 1380 406 1347 490 1254 490 c 0
 1170 490 1138 390 1138 287 c 0
 1138 173 1168 84 1258 84 c 0
 1346 84 1380 182 1380 287 c 0
66 863 m 0
 66 1041 162 1170 326 1170 c 0
 489 1170 586 1040 586 863 c 0
 586 684 491 557 326 557 c 0
 165 557 66 676 66 863 c 0
447 863 m 0
 447 982 414 1066 321 1066 c 0
 237 1066 205 966 205 863 c 0
 206 749 236 660 326 660 c 0
 415 660 447 757 447 863 c 0
273 0 m 1
 1223 1196 l 1
 1284 1146 l 1
 341 -50 l 1
 273 0 l 1
EndSplineSet
EndChar

StartChar: period
Encoding: 14 46 271
Width: 414
VWidth: 0
Flags: HMW
LayerCount: 2
Fore
SplineSet
86 211 m 1
 313 211 l 1
 313 0 l 1
 86 0 l 1
 86 211 l 1
EndSplineSet
EndChar

StartChar: periodcentered
Encoding: 418 183 272
Width: 414
VWidth: 0
Flags: HMW
LayerCount: 2
Fore
SplineSet
86 657 m 1
 313 657 l 1
 313 446 l 1
 86 446 l 1
 86 657 l 1
EndSplineSet
EndChar

StartChar: plus
Encoding: 11 43 273
Width: 1047
VWidth: 0
Flags: HMW
LayerCount: 2
Fore
SplineSet
461 994 m 1
 585 994 l 1
 585 602 l 1
 990 602 l 1
 990 485 l 1
 585 485 l 1
 585 93 l 1
 461 93 l 1
 461 485 l 1
 57 485 l 1
 57 602 l 1
 461 602 l 1
 461 994 l 1
EndSplineSet
EndChar

StartChar: plusminus
Encoding: 112 177 274
Width: 1145
VWidth: 0
Flags: HMW
LayerCount: 2
Fore
SplineSet
133 121 m 1
 1012 121 l 1
 1012 0 l 1
 133 0 l 1
 133 121 l 1
510 1171 m 1
 633 1171 l 1
 633 793 l 1
 1012 793 l 1
 1012 672 l 1
 633 672 l 1
 633 293 l 1
 510 293 l 1
 510 672 l 1
 133 672 l 1
 133 793 l 1
 510 793 l 1
 510 1171 l 1
EndSplineSet
EndChar

StartChar: product
Encoding: 404 8719 275
Width: 1299
VWidth: 0
Flags: HMW
LayerCount: 2
Fore
SplineSet
61 1153 m 1
 1232 1153 l 1
 1232 1077 l 1
 1207 1077 l 1
 1115 1078 1079 1047 1079 964 c 2
 1079 200 l 1
 1082 119 1126 94 1207 94 c 2
 1232 94 l 1
 1232 18 l 1
 752 18 l 1
 752 94 l 1
 777 94 l 2
 869 94 906 125 906 208 c 2
 906 1064 l 1
 386 1064 l 1
 386 208 l 2
 386 121 431 94 516 94 c 2
 541 94 l 1
 541 18 l 1
 61 18 l 1
 61 94 l 1
 85 94 l 2
 178 94 215 124 215 208 c 2
 215 971 l 1
 212 1051 167 1080 85 1077 c 1
 61 1077 l 1
 61 1153 l 1
EndSplineSet
EndChar

StartChar: q
Encoding: 81 113 276
Width: 1164
VWidth: 0
Flags: HMW
LayerCount: 2
Fore
SplineSet
779 564 m 1
 696.361867704 651.669230769 609.692607004 695 520 695 c 4
 346 695 258 569.577702703 258 398 c 0
 258 230 353 107 522 107 c 0
 607.666666667 107 698.37254902 143 779 229 c 1
 779 564 l 1
102 402 m 0
 102 638 254.781491003 820 493 820 c 0
 612.838028169 820 708.507042254 780 779 699 c 1
 782 805 l 1
 1069 805 l 1
 1069 689 l 1
 927 689 l 1
 927 -179 l 1
 1079 -179 l 1
 1079 -303 l 1
 615 -303 l 1
 615 -179 l 1
 779 -179 l 1
 779 90 l 1
 706.480144404 15 617.844765343 -18 500 -18 c 0
 262.808080808 -18 102 166 102 402 c 0
EndSplineSet
EndChar

StartChar: question
Encoding: 31 63 277
Width: 796
VWidth: 0
Flags: HMW
LayerCount: 2
Fore
SplineSet
280 197 m 1
 452 197 l 1
 452 0 l 1
 280 0 l 1
 280 197 l 1
54 849 m 1
 54 1059 192 1170 392 1170 c 0
 579 1170 738 1054 738 868 c 0
 738 742 668 680 582 624 c 0
 471 551 418 485 408 323 c 1
 313 323 l 1
 313 491 356 606 441 669 c 1
 512 720 596 753 596 862 c 0
 596 975 512 1050 401 1050 c 0
 260 1050 189 983 189 849 c 1
 54 849 l 1
EndSplineSet
EndChar

StartChar: quotedbl
Encoding: 2 34 279
Width: 665
VWidth: 0
Flags: HMW
LayerCount: 2
Fore
SplineSet
72 1171 m 1
 270 1171 l 1
 228 716 l 5
 118 716 l 5
 72 1171 l 1
396 1171 m 1
 592 1171 l 1
 550 716 l 5
 440 716 l 5
 396 1171 l 1
EndSplineSet
EndChar

StartChar: quotedblbase
Encoding: 393 8222 280
Width: 785
VWidth: 0
Flags: HMW
LayerCount: 2
Fore
SplineSet
481 211 m 1
 698 211 l 1
 698 0 l 2
 698 -162 633 -239 481 -237 c 1
 481 -150 l 1
 564 -132 592 -99 592 0 c 1
 481 0 l 1
 481 211 l 1
82 211 m 1
 299 211 l 1
 299 0 l 1
 298 -162 234 -240 82 -237 c 1
 82 -150 l 1
 165 -132 194 -100 193 0 c 1
 82 0 l 1
 82 211 l 1
EndSplineSet
EndChar

StartChar: quotedblleft
Encoding: 391 8220 281
Width: 720
VWidth: 0
Flags: HMW
LayerCount: 2
Fore
SplineSet
82 934 m 2
 82 1096 147 1173 299 1171 c 1
 299 1084 l 1
 216 1066 188 1033 188 934 c 1
 299 934 l 1
 299 723 l 1
 82 723 l 1
 82 934 l 2
415 934 m 1
 416 1096 480 1174 632 1171 c 1
 632 1084 l 1
 549 1066 520 1034 521 934 c 1
 632 934 l 1
 632 723 l 1
 415 723 l 1
 415 934 l 1
EndSplineSet
EndChar

StartChar: quotedblright
Encoding: 392 8221 282
Width: 704
VWidth: 0
Flags: HMW
LayerCount: 2
Fore
SplineSet
415 1153 m 1
 632 1153 l 1
 632 942 l 2
 632 780 567 703 415 705 c 1
 415 792 l 1
 498 810 526 843 526 942 c 1
 415 942 l 1
 415 1153 l 1
82 1153 m 1
 299 1153 l 1
 299 942 l 1
 298 780 234 702 82 705 c 1
 82 792 l 1
 165 810 194 842 193 942 c 1
 82 942 l 1
 82 1153 l 1
EndSplineSet
EndChar

StartChar: quoteleft
Encoding: 388 8216 283
Width: 382
VWidth: 0
Flags: HMW
LayerCount: 2
Fore
SplineSet
82 934 m 2
 82 1096 147 1173 299 1171 c 1
 299 1084 l 1
 216 1066 188 1033 188 934 c 1
 299 934 l 1
 299 723 l 1
 82 723 l 1
 82 934 l 2
EndSplineSet
EndChar

StartChar: quoteright
Encoding: 389 8217 284
Width: 364
VWidth: 0
Flags: HMW
LayerCount: 2
Fore
SplineSet
82 1153 m 1
 299 1153 l 1
 299 942 l 1
 298 780 234 702 82 705 c 1
 82 792 l 1
 165 810 194 842 193 942 c 1
 82 942 l 1
 82 1153 l 1
EndSplineSet
EndChar

StartChar: quotesinglbase
Encoding: 390 8218 285
Width: 389
VWidth: 0
Flags: HMW
LayerCount: 2
Fore
SplineSet
82 211 m 1
 299 211 l 1
 299 0 l 1
 298 -162 234 -240 82 -237 c 1
 82 -150 l 1
 165 -132 194 -100 193 0 c 1
 82 0 l 1
 82 211 l 1
EndSplineSet
EndChar

StartChar: quotesingle
Encoding: 7 39 286
Width: 337
VWidth: 0
Flags: HMW
LayerCount: 2
Fore
SplineSet
70 1171 m 1
 267 1171 l 1
 225 716 l 1
 115 716 l 1
 70 1171 l 1
EndSplineSet
EndChar

StartChar: r
Encoding: 82 114 287
Width: 856
VWidth: 0
Flags: HMW
LayerCount: 2
Fore
SplineSet
409 629 m 1
 423 711 534 810 661 810 c 0
 709 810 743 805 780 778 c 1
 773 664 l 1
 773 664 725 684 677 684 c 0
 529.827309237 684 463.297188755 597 426 490 c 1
 426 116 l 1
 639 116 l 1
 639 0 l 1
 117 0 l 1
 117 116 l 1
 278 116 l 1
 278 689 l 1
 111 689 l 1
 111 805 l 1
 392 805 l 1
 409 629 l 1
EndSplineSet
EndChar

StartChar: registered
Encoding: 109 174 291
Width: 1338
VWidth: 0
Flags: HMW
LayerCount: 2
Fore
SplineSet
809 733 m 2
 809 795 768 826 685 826 c 2
 568 826 l 1
 568 631 l 1
 689 631 l 2
 761 631 809 660 809 725 c 2
 809 733 l 2
393 895 m 1
 692 895 l 2
 816 895 898 846 898 733 c 0
 898 644 851 591 758 572 c 1
 885 337 l 1
 964 337 l 1
 964 269 l 1
 827 269 l 1
 673 561 l 1
 568 561 l 1
 568 337 l 1
 653 337 l 1
 653 269 l 1
 393 269 l 1
 393 337 l 1
 481 337 l 1
 481 826 l 1
 393 826 l 1
 393 895 l 1
1151 575 m 1
 1149 857 960 1077 667 1077 c 0
 375 1077 184 858 184 575 c 0
 184 294 376 74 666 74 c 0
 958 74 1149 294 1151 575 c 1
68 575 m 0
 68 917 312 1171 668 1171 c 0
 1024 1171 1268 917 1268 575 c 0
 1268 233 1023 -18 668 -18 c 0
 313 -18 68 233 68 575 c 0
EndSplineSet
EndChar

StartChar: ring
Encoding: 357 730 292
Width: 565
VWidth: 0
Flags: HMW
LayerCount: 2
Fore
SplineSet
386 1042 m 0
 386 1096 346 1140 282 1140 c 0
 226 1140 177 1098 177 1042 c 0
 178 985 225 944 282 943 c 0
 337 943 386 979 386 1042 c 0
114 1042 m 0
 114 1134 189 1202 282 1201 c 1
 375 1202 451 1133 451 1042 c 0
 452 950 373 882 282 881 c 1
 190 881 114 950 114 1042 c 0
EndSplineSet
EndChar

StartChar: s
Encoding: 83 115 293
Width: 921
VWidth: 0
Flags: HMW
LayerCount: 2
Fore
SplineSet
143 584 m 0
 143 732 289 820 432 820 c 0
 514 820 584 790 645 740 c 1
 645 805 l 1
 774 805 l 1
 774 549 l 1
 645 549 l 1
 645 616 l 1
 598 673 531 702 446 702 c 0
 368 702 284 670 284 602 c 0
 284 514 347 497 448 480 c 0
 482 474 514 469 544 463 c 0
 716 430 820 390 820 228 c 0
 820 66 680 -18 510 -18 c 0
 416 -18 325 15 278 70 c 1
 278 0 l 1
 145 0 l 1
 145 272 l 1
 278 272 l 1
 278 203 l 1
 310 151 398 100 497 100 c 0
 619 100 680 139 680 217 c 1
 682 302 604 316 478 341 c 0
 445 347 415 351 387 358 c 0
 228 393 143 433 143 584 c 0
EndSplineSet
EndChar

StartChar: section
Encoding: 102 167 299
Width: 877
VWidth: 0
Flags: HMW
LayerCount: 2
Fore
SplineSet
572 526 m 0
 498 562 408 588 331 626 c 1
 265 587 213 549 213 462 c 0
 213 387 266 351 321 324 c 0
 395 287 482 259 560 220 c 1
 643 263 685 319 685 388 c 0
 685 465 628 499 572 526 c 0
448 1171 m 2
 450 1171 l 2
 610 1171 730 1100 770 969 c 1
 645 924 l 1
 620 1010 561 1054 466 1054 c 0
 358 1054 257 1012 257 913 c 0
 257 781 435 736 534 698 c 0
 679 641 809 583 809 419 c 0
 809 322 756 240 650 173 c 1
 737 122 781 52 781 -35 c 0
 781 -204 648 -320 481 -320 c 0
 335 -320 228 -267 160 -160 c 1
 262 -77 l 1
 303 -157 372 -197 468 -197 c 1
 553 -196 640 -147 640 -67 c 0
 640 42 547 78 466 110 c 0
 276 183 88 241 88 431 c 0
 88 552 161 616 248 674 c 1
 161 726 118 801 118 899 c 0
 118 1063 276 1171 448 1171 c 2
EndSplineSet
EndChar

StartChar: semicolon
Encoding: 27 59 300
Width: 414
VWidth: 0
Flags: HMW
LayerCount: 2
Fore
SplineSet
93 820 m 1
 320 820 l 1
 320 609 l 1
 93 609 l 1
 93 820 l 1
100 211 m 1
 327 211 l 1
 327 0 l 1
 328 -164 257 -239 100 -237 c 1
 100 -150 l 1
 187 -132 221 -100 221 0 c 1
 100 0 l 1
 100 211 l 1
EndSplineSet
EndChar

StartChar: seven
Encoding: 23 55 301
Width: 819
VWidth: 0
Flags: HMW
LayerCount: 2
Fore
SplineSet
51 1153 m 1
 809 1153 l 1
 809 1025 l 1
 585 798 450 516 450 116 c 1
 632 116 l 1
 632 0 l 1
 121 0 l 1
 121 116 l 1
 293 116 l 1
 293 471 439 818 641 1036 c 1
 188 1036 l 1
 188 860 l 1
 51 860 l 1
 51 1153 l 1
EndSplineSet
EndChar

StartChar: six
Encoding: 22 54 302
Width: 947
VWidth: 0
Flags: HMW
LayerCount: 2
Fore
SplineSet
722 362 m 0
 722 490 652 592 519 592 c 0
 416 592 302 555 242 509 c 1
 256 308 301 116 487 116 c 0
 637 116 722 214 722 362 c 0
495 1171 m 2
 497 1171 l 2
 699 1171 842 1043 847 848 c 1
 710 848 l 1
 698 949 621 1045 515 1045 c 0
 310 1045 236 862 236 639 c 1
 304 695 395 722 508 722 c 0
 729 721 867 580 867 362 c 0
 867 144 720 -18 498 -18 c 0
 211 -18 86 232 86 575 c 0
 86 899 193 1171 495 1171 c 2
EndSplineSet
EndChar

StartChar: slash
Encoding: 15 47 303
Width: 793
VWidth: 0
Flags: HMW
LayerCount: 2
Fore
SplineSet
563 1171 m 1
 692 1171 l 1
 258 -18 l 1
 129 -18 l 1
 563 1171 l 1
EndSplineSet
EndChar

StartChar: sterling
Encoding: 98 163 305
Width: 993
VWidth: 0
Flags: HMW
LayerCount: 2
Fore
SplineSet
373 163 m 1
 312 213 265 241 234 247 c 1
 187 247 158 202 158 154 c 0
 158 100 189 65 249 65 c 2
 254 65 l 2
 294 65 334 98 373 163 c 1
569 1171 m 2
 572 1171 l 2
 768 1171 884 1065 887 863 c 1
 752 863 l 1
 752 989 694 1052 579 1052 c 0
 461 1052 371 996 371 886 c 0
 371 781 412 717 450 645 c 1
 818 645 l 1
 818 529 l 1
 505 529 l 1
 528 473 539 419 539 366 c 0
 539 313 526 260 499 207 c 1
 552 175 641 122 690 122 c 0
 812 122 833 176 841 290 c 1
 934 290 l 1
 934 94 890 -18 701 -18 c 0
 608 -18 515 46 444 98 c 1
 393 21 332 -18 261 -18 c 0
 139 -18 51 40 51 151 c 0
 51 253 139 338 246 338 c 0
 304 338 361 312 416 261 c 1
 421 279 423 298 423 319 c 0
 423 376 398 446 349 529 c 1
 132 529 l 1
 132 645 l 1
 287 645 l 1
 248 726 229 794 229 850 c 0
 229 1057 362 1171 569 1171 c 2
EndSplineSet
EndChar

StartChar: t
Encoding: 84 116 306
Width: 687
VWidth: 0
Flags: HMW
LayerCount: 2
Fore
SplineSet
238 1063 m 1
 386 1095 l 1
 386 805 l 1
 598 805 l 1
 589 689 l 1
 386 689 l 1
 386 289 l 2
 386 175 382 116 471 116 c 2
 589 116 l 1
 589 0 l 1
 451 0 l 2
 264.625 0 238 95 238 300 c 2
 238 689 l 1
 111 689 l 1
 111 805 l 1
 238 805 l 1
 238 1063 l 1
EndSplineSet
EndChar

StartChar: thorn
Encoding: 187 254 309
Width: 1026
VWidth: 0
Flags: HMW
LayerCount: 2
Fore
SplineSet
850 396 m 0
 850 566 743 694 570 694 c 0
 482 694 398 651 319 564 c 1
 319 229 l 1
 399 144 471 107 582 107 c 0
 747 107 850 231 850 396 c 0
25 1153 m 1
 319 1153 l 1
 319 707 l 1
 401 782 501 820 619 820 c 0
 855 820 1012 641 1013 406 c 0
 1014 169 852 -18 614 -18 c 0
 494 -18 375 23 318 91 c 1
 318 -303 l 1
 24 -303 l 1
 24 -179 l 1
 168 -179 l 1
 168 1037 l 1
 25 1037 l 1
 25 1153 l 1
EndSplineSet
EndChar

StartChar: three
Encoding: 19 51 310
Width: 953
VWidth: 0
Flags: HMW
LayerCount: 2
Fore
SplineSet
79 853 m 1
 87 1055 221 1170 451 1170 c 0
 664 1170 823 1069 823 864 c 0
 823 727 758 639 628 602 c 1
 772 575 872 483 872 322 c 0
 872 98 673 -18 450 -18 c 2
 447 -18 l 2
 203 -18 51 104 51 346 c 1
 198 346 l 1
 211 203 291 116 443 116 c 0
 603 116 708 177 708 328 c 0
 708 464 586 532 342 532 c 1
 342 664 l 1
 548 664 669 682 669 850 c 0
 669 975 573 1038 443 1038 c 0
 307 1038 236 973 227 852 c 1
 79 853 l 1
EndSplineSet
EndChar

StartChar: threequarters
Encoding: 123 190 311
Width: 1936
VWidth: 0
Flags: HMW
LayerCount: 2
Fore
SplineSet
1524 352 m 1
 1524 765 l 1
 1270 352 l 1
 1524 352 l 1
1146 1170 m 1
 1235 1170 l 1
 821 0 l 1
 731 0 l 1
 1146 1170 l 1
117 941 m 1
 122 1082 229 1171 378 1171 c 0
 552 1170 669 1103 673 941 c 1
 673 838 623 772 522 743 c 1
 620 725 707 656 707 550 c 0
 707 368 571 283 381 283 c 2
 378 283 l 2
 207 283 96 375 96 554 c 1
 206 557 l 1
 215 461 275 383 373 383 c 0
 487 383 587 424 587 520 c 1
 583 663 508 693 313 693 c 1
 313 792 l 1
 481 792 558 814 558 926 c 0
 558 1022 484 1068 383 1068 c 0
 282 1068 234 1013 228 921 c 1
 117 941 l 1
1527 931 m 1
 1639 931 l 1
 1639 352 l 1
 1792 352 l 1
 1792 254 l 1
 1639 254 l 1
 1639 94 l 1
 1759 94 l 1
 1759 0 l 1
 1392 0 l 1
 1392 94 l 1
 1524 94 l 1
 1524 254 l 1
 1153 254 l 1
 1153 352 l 1
 1527 931 l 1
EndSplineSet
EndChar

StartChar: tilde
Encoding: 359 732 312
Width: 587
VWidth: 0
Flags: HMW
LayerCount: 2
Fore
SplineSet
102 1159 m 0
 122 1167 144 1171 168 1171 c 0
 201 1171 250 1159 314 1136 c 0
 378 1113 421 1101 443 1101 c 0
 484 1101 510 1123 520 1166 c 1
 598 1166 l 1
 589 1054 538 953 428 954 c 0
 381 954 326 966 265 989 c 0
 204 1012 161 1024 137 1024 c 0
 100 1024 77 1003 69 962 c 1
 -11 962 l 1
 -2 1067 35 1132 102 1159 c 0
EndSplineSet
EndChar

StartChar: trademark
Encoding: 403 8482 313
Width: 1986
VWidth: 0
Flags: HMW
LayerCount: 2
Fore
SplineSet
127 1153 m 1
 790 1153 l 1
 790 898 l 1
 685 898 l 1
 685 1057 l 1
 524 1057 l 1
 524 483 l 1
 644 483 l 1
 644 388 l 1
 276 388 l 1
 276 483 l 1
 396 483 l 1
 396 1057 l 1
 231 1057 l 1
 231 898 l 1
 127 898 l 1
 127 1153 l 1
1574 1153 m 1
 1856 1153 l 1
 1856 1057 l 1
 1755 1057 l 1
 1755 483 l 1
 1856 483 l 1
 1856 388 l 1
 1547 388 l 1
 1547 483 l 1
 1639 483 l 1
 1639 1014 l 1
 1367 388 l 1
 1328 388 l 1
 1057 1012 l 1
 1057 483 l 1
 1150 483 l 1
 1150 388 l 1
 849 388 l 1
 849 483 l 1
 951 483 l 1
 951 1057 l 1
 849 1057 l 1
 849 1153 l 1
 1128 1153 l 1
 1349 634 l 1
 1574 1153 l 1
EndSplineSet
EndChar

StartChar: two
Encoding: 18 50 314
Width: 936
VWidth: 0
Flags: HMW
LayerCount: 2
Fore
SplineSet
95 744 m 1
 95 1019 196 1171 462 1171 c 0
 670 1171 832 1060 832 858 c 0
 832 504 289 423 228 116 c 1
 700 116 l 1
 700 378 l 1
 827 378 l 1
 827 0 l 1
 62 0 l 1
 62 172 133 319 274 442 c 0
 401 552 666 676 666 860 c 0
 666 982 581 1038 447 1038 c 0
 281 1038 239 930 239 750 c 2
 239 744 l 1
 95 744 l 1
EndSplineSet
EndChar

StartChar: u
Encoding: 85 117 315
Width: 1053
VWidth: 0
Flags: HMW
LayerCount: 2
Fore
SplineSet
559 805 m 1
 855 805 l 1
 855 116 l 1
 1001 116 l 1
 1001 0 l 1
 712 0 l 1
 707 100 l 1
 623.063909774 21 538.116541353 -18 438 -18 c 0
 272 -18 175 75 175 261 c 2
 175 689 l 1
 39 689 l 1
 39 805 l 1
 323 805 l 1
 323 268 l 2
 323 161 380.611510791 107 466 107 c 0
 557.134453782 107 633.079831933 155 707 250 c 1
 707 689 l 1
 559 689 l 1
 559 805 l 1
EndSplineSet
EndChar

StartChar: underscore
Encoding: 63 95 323
Width: 898
VWidth: 0
Flags: HMW
LayerCount: 2
Fore
SplineSet
0 -82 m 1
 898 -82 l 1
 898 -199 l 1
 0 -199 l 1
 0 -82 l 1
EndSplineSet
EndChar

StartChar: uni00B2
Encoding: 113 178 326
Width: 747
VWidth: 0
Flags: HMW
LayerCount: 2
Fore
SplineSet
109 854 m 1
 109 1065 197 1171 374 1171 c 0
 540 1171 657 1088 657 939 c 0
 657 682 253 617 208 401 c 1
 559 401 l 1
 559 581 l 1
 653 581 l 1
 653 300 l 1
 87 300 l 1
 87 436 144 551 258 644 c 0
 355 723 533 800 533 936 c 0
 533 1025 480 1070 375 1070 c 0
 245 1070 216 994 216 854 c 1
 109 854 l 1
EndSplineSet
EndChar

StartChar: uni00B3
Encoding: 114 179 327
Width: 783
VWidth: 0
Flags: HMW
LayerCount: 2
Fore
SplineSet
112 941 m 1
 117 1082 224 1171 373 1171 c 0
 545 1170 668 1104 668 941 c 0
 668 838 618 772 517 743 c 1
 616 725 702 657 702 550 c 0
 702 370 564 283 376 283 c 2
 373 283 l 2
 205 283 91 372 91 547 c 2
 91 557 l 1
 201 557 l 1
 210 461 270 383 368 383 c 0
 482 383 582 424 582 520 c 0
 582 664 505 693 308 693 c 1
 308 792 l 1
 476 792 553 814 553 926 c 0
 553 1023 481 1068 379 1068 c 0
 278 1068 229 1013 223 921 c 1
 112 941 l 1
EndSplineSet
EndChar

StartChar: uni00B5
Encoding: 419 181 328
Width: 925
VWidth: 0
Flags: HMW
LayerCount: 2
Fore
SplineSet
528 805 m 1
 824 805 l 1
 824 116 l 1
 970 116 l 1
 970 0 l 1
 678 0 l 1
 673 100 l 1
 542 25 474 -27 395 -27 c 0
 361 -27 325 -17 281 4 c 1
 281 -368 l 1
 152 -368 l 1
 152 689 l 1
 32 689 l 1
 32 805 l 1
 304 805 l 1
 304 268 l 2
 304 169 333 107 429 107 c 0
 519 107 600 155 673 250 c 1
 673 689 l 1
 528 689 l 1
 528 805 l 1
EndSplineSet
EndChar

StartChar: uni00B9
Encoding: 118 185 329
Width: 476
VWidth: 0
Flags: HMW
LayerCount: 2
Fore
SplineSet
57 1153 m 1
 297 1153 l 1
 297 392 l 1
 411 392 l 1
 411 299 l 1
 63 299 l 1
 63 392 l 1
 186 392 l 1
 186 1059 l 1
 57 1059 l 1
 57 1153 l 1
EndSplineSet
EndChar

StartChar: uni0237
Encoding: 352 567 370
Width: 441
VWidth: 0
Flags: HMW
LayerCount: 2
Fore
SplineSet
11 805 m 1
 314 805 l 1
 314 19 l 2
 314 -89 302 -162 279 -198 c 0
 230 -274 159 -303 31 -303 c 2
 -60 -303 l 1
 -60 -179 l 1
 47 -179 l 2
 145 -179 163 -113 163 -8 c 2
 163 689 l 1
 11 689 l 1
 11 805 l 1
EndSplineSet
EndChar

StartChar: uni0307
Encoding: 420 775 371
Width: 535
VWidth: 0
Flags: HMW
LayerCount: 2
Fore
SplineSet
177 1038 m 0
 176 1088 219 1125 268 1125 c 0
 317 1125 359 1093 359 1038 c 1
 360 992 325 950 268 950 c 0
 220 950 177 990 177 1038 c 0
EndSplineSet
EndChar

StartChar: uni030F
Encoding: 361 783 372
Width: 587
VWidth: 0
Flags: HMW
LayerCount: 2
Fore
SplineSet
-3 1171 m 1
 187 1171 l 1
 277 899 l 1
 181 899 l 1
 -3 1171 l 1
258 1171 m 1
 448 1171 l 1
 538 899 l 1
 443 899 l 1
 258 1171 l 1
EndSplineSet
EndChar

StartChar: uni0311
Encoding: 362 785 373
Width: 584
VWidth: 0
Flags: HMW
LayerCount: 2
Fore
SplineSet
34 940 m 1
 45 1069 153 1152 292 1153 c 1
 432 1152 537 1068 550 940 c 1
 439 940 l 1
 429 1014 374 1058 292 1058 c 0
 207 1058 158 1019 144 940 c 1
 34 940 l 1
EndSplineSet
EndChar

StartChar: uni0326
Encoding: 421 806 374
Width: 554
VWidth: 0
Flags: HMW
LayerCount: 2
Fore
SplineSet
151 -66 m 1
 363 -66 l 1
 363 -278 l 1
 362 -437 299 -512 151 -515 c 1
 151 -427 l 1
 229 -411 257 -373 257 -278 c 1
 151 -278 l 1
 151 -66 l 1
EndSplineSet
EndChar

StartChar: uni2074
Encoding: 422 8308 375
Width: 875
VWidth: 0
Flags: HMW
LayerCount: 2
Fore
SplineSet
478 352 m 1
 478 765 l 1
 224 352 l 1
 478 352 l 1
481 931 m 1
 593 931 l 1
 593 352 l 1
 746 352 l 1
 746 254 l 1
 593 254 l 1
 593 94 l 1
 713 94 l 1
 713 0 l 1
 346 0 l 1
 346 94 l 1
 478 94 l 1
 478 254 l 1
 107 254 l 1
 107 352 l 1
 481 931 l 1
EndSplineSet
EndChar

StartChar: uni2206
Encoding: 423 8710 376
Width: 996
VWidth: 0
Flags: HMW
LayerCount: 2
Fore
SplineSet
502 877 m 0
 489 916 477 954 468 993 c 1
 453 928 430 850 398 761 c 2
 171 117 l 1
 752 117 l 1
 673 363 579 648 502 877 c 0
429 1166 m 1
 577 1166 l 1
 943 102 l 1
 943 0 l 1
 48 0 l 1
 48 91 l 1
 429 1166 l 1
EndSplineSet
EndChar

StartChar: uniFB01
Encoding: 415 64257 377
Width: 1029
VWidth: 0
Flags: HMW
LayerCount: 2
Fore
SplineSet
694 1066 m 0
 694 1120 732 1151 795 1152 c 0
 837 1153 877 1110 877 1066 c 0
 877 1021 837 979 795 979 c 0
 735 979 694 1010 694 1066 c 0
185 943 m 2
 185 1054 231 1125 323 1156 c 0
 412 1185 505 1171 555 1124 c 1
 596 1088 616 1034 616 963 c 1
 486 963 l 1
 486 1017 464 1053 416 1053 c 0
 363 1053 336 1013 336 934 c 2
 336 805 l 1
 861 805 l 1
 861 116 l 1
 997 116 l 1
 997 0 l 1
 577 0 l 1
 577 116 l 1
 712 116 l 1
 712 689 l 1
 336 689 l 1
 336 116 l 1
 498 116 l 1
 498 0 l 1
 65 0 l 1
 65 116 l 1
 185 116 l 1
 185 689 l 1
 56 689 l 1
 56 805 l 1
 185 805 l 1
 185 943 l 2
EndSplineSet
EndChar

StartChar: uniFB02
Encoding: 416 64258 378
Width: 1009
VWidth: 0
Flags: HMW
LayerCount: 2
Fore
SplineSet
418 1153 m 2
 844 1153 l 1
 844 116 l 1
 977 116 l 1
 977 0 l 1
 561 0 l 1
 561 116 l 1
 695 116 l 1
 695 1037 l 1
 416 1037 l 2
 349 1037 336 1002 336 934 c 2
 336 805 l 1
 509 805 l 1
 509 689 l 1
 336 689 l 1
 336 116 l 1
 472 116 l 1
 472 0 l 1
 65 0 l 1
 65 116 l 1
 185 116 l 1
 185 689 l 1
 56 689 l 1
 56 805 l 1
 185 805 l 1
 185 943 l 2
 185 1083 263 1153 418 1153 c 2
EndSplineSet
EndChar

StartChar: v
Encoding: 86 118 382
Width: 970
VWidth: 0
Flags: HMW
LayerCount: 2
Fore
SplineSet
565 805 m 1
 967 805 l 1
 967 689 l 1
 834 689 l 1
 563 0 l 1
 427 0 l 1
 135 689 l 1
 3 689 l 1
 3 805 l 1
 414 805 l 1
 414 689 l 1
 292 689 l 1
 494 162 l 1
 685 689 l 1
 565 689 l 1
 565 805 l 1
EndSplineSet
EndChar

StartChar: w
Encoding: 87 119 383
Width: 1416
VWidth: 0
Flags: HMW
LayerCount: 2
Fore
SplineSet
1032 805 m 1
 1408 805 l 1
 1408 689 l 1
 1286 689 l 1
 1052 0 l 1
 910 0 l 1
 704 622 l 1
 493 0 l 1
 350 0 l 1
 112 689 l 1
 8 689 l 1
 8 805 l 1
 362 805 l 1
 362 689 l 1
 252 689 l 1
 419 157 l 1
 606 689 l 1
 501 689 l 1
 501 805 l 1
 899 805 l 1
 899 689 l 1
 794 689 l 1
 985 146 l 1
 1152 689 l 1
 1032 689 l 1
 1032 805 l 1
EndSplineSet
EndChar

StartChar: x
Encoding: 88 120 384
Width: 1058
VWidth: 0
Flags: HMW
LayerCount: 2
Fore
SplineSet
590 805 m 1
 970 805 l 1
 970 689 l 1
 837 689 l 1
 608 413 l 1
 866 116 l 1
 978 116 l 1
 978 0 l 1
 602 0 l 1
 602 116 l 1
 714 116 l 1
 529 329 l 1
 352 116 l 1
 458 116 l 1
 458 0 l 1
 80 0 l 1
 80 116 l 1
 199 116 l 1
 452 413 l 1
 215 689 l 1
 90 689 l 1
 90 805 l 1
 470 805 l 1
 470 689 l 1
 361 689 l 1
 529 494 l 1
 691 689 l 1
 590 689 l 1
 590 805 l 1
EndSplineSet
EndChar

StartChar: y
Encoding: 89 121 385
Width: 999
VWidth: 0
Flags: HMW
LayerCount: 2
Fore
SplineSet
570 805 m 1
 983 805 l 1
 983 689 l 1
 854 689 l 1
 626 36 l 1
 555 -179 494 -320 252 -320 c 2
 166 -320 l 1
 166 -202 l 1
 240 -202 l 2
 372 -202 416 -149 456 -42 c 2
 488 43 l 1
 406 43 l 1
 130 689 l 1
 4 689 l 1
 4 805 l 1
 410 805 l 1
 410 689 l 1
 286 689 l 1
 510 143 l 1
 685 689 l 1
 570 689 l 1
 570 805 l 1
EndSplineSet
EndChar

StartChar: yen
Encoding: 100 165 388
Width: 1130
VWidth: 0
Flags: HMW
LayerCount: 2
Fore
SplineSet
685 1153 m 1
 1145 1153 l 1
 1145 1037 l 1
 989 1037 l 1
 708 622 l 1
 885 622 l 1
 885 503 l 1
 646 503 l 1
 646 414 l 1
 885 414 l 1
 885 297 l 1
 646 297 l 1
 646 116 l 1
 810 116 l 1
 810 0 l 1
 327 0 l 1
 327 116 l 1
 486 116 l 1
 486 297 l 1
 249 297 l 1
 249 414 l 1
 486 414 l 1
 486 503 l 1
 249 503 l 1
 249 622 l 1
 421 622 l 1
 128 1037 l 1
 -18 1037 l 1
 -18 1153 l 1
 454 1153 l 1
 454 1037 l 1
 304 1037 l 1
 578 648 l 1
 835 1037 l 1
 685 1037 l 1
 685 1153 l 1
EndSplineSet
EndChar

StartChar: z
Encoding: 90 122 389
Width: 925
VWidth: 0
Flags: HMW
LayerCount: 2
Fore
SplineSet
160 805 m 1
 800 805 l 1
 800 683 l 1
 326 116 l 1
 697 116 l 1
 697 276 l 1
 825 276 l 1
 825 0 l 1
 146 0 l 1
 146 116 l 1
 618 689 l 1
 281 689 l 1
 281 537 l 1
 160 537 l 1
 160 805 l 1
EndSplineSet
EndChar

StartChar: zero
Encoding: 16 48 393
Width: 1004
VWidth: 0
Flags: HMW
LayerCount: 2
Fore
SplineSet
764 575 m 0
 764 835 723 1051 501 1051 c 0
 298 1051 241 832 241 576 c 0
 241 290 288 105 498 101 c 1
 725 101 764 312 764 575 c 0
87 577 m 0
 87 923 195 1171 502 1171 c 0
 807 1171 917 902 917 577 c 0
 916 230 808 -18 502 -18 c 0
 197 -18 87 252 87 577 c 0
EndSplineSet
EndChar

StartChar: uniFB03
Encoding: 417 64259 420
Width: 1558
VWidth: 0
Flags: HW
LayerCount: 2
Fore
SplineSet
1241 1066 m 0
 1241 1120 1279 1152 1343 1152 c 0
 1384 1152 1424 1109 1424 1066 c 0
 1424 1021 1384 979 1342 979 c 0
 1282 979 1241 1010 1241 1066 c 0
723 943 m 2
 723 1084 806 1171 954 1171 c 0
 1082 1171 1154 1091 1154 963 c 1
 1024 963 l 1
 1024 1017 1002 1053 954 1053 c 0
 901 1053 874 1013 874 934 c 2
 874 805 l 1
 1408 805 l 1
 1408 116 l 1
 1544 116 l 1
 1544 0 l 1
 1153 0 l 1
 1153 116 l 1
 1259 116 l 1
 1259 689 l 1
 874 689 l 1
 874 116 l 1
 1033 116 l 1
 1033 0 l 1
 616 0 l 1
 616 116 l 1
 723 116 l 1
 723 689 l 1
 336 689 l 1
 336 116 l 1
 495 116 l 1
 495 0 l 1
 61 0 l 1
 61 116 l 1
 185 116 l 1
 185 689 l 1
 56 689 l 1
 56 805 l 1
 185 805 l 1
 185 943 l 2
 185 1084 268 1171 416 1171 c 0
 544 1171 616 1091 616 963 c 1
 486 963 l 1
 486 1017 464 1053 416 1053 c 0
 363 1053 336 1013 336 934 c 2
 336 805 l 1
 723 805 l 1
 723 943 l 2
EndSplineSet
EndChar

StartChar: uniFB04
Encoding: 424 64260 421
Width: 1548
VWidth: 0
Flags: HW
LayerCount: 2
Fore
SplineSet
725 992 m 1
 682 1028 601 1054 501 1054 c 0
 414 1054 336 1024 336 934 c 2
 336 805 l 1
 723 805 l 1
 723 943 l 2
 723 960 724 976 725 992 c 1
779 1099 m 1
 839 1159 941 1174 1056 1174 c 0
 1171 1174 1340 1154 1406 1142 c 1
 1406 116 l 1
 1547 116 l 1
 1547 0 l 1
 1129 0 l 1
 1129 116 l 1
 1257 116 l 1
 1257 1040 l 1
 1189 1052 1107 1058 1035 1058 c 0
 945 1058 874 1034 874 934 c 2
 874 805 l 1
 1034 805 l 1
 1034 689 l 1
 874 689 l 1
 874 116 l 1
 1033 116 l 1
 1033 0 l 1
 599 0 l 1
 599 116 l 1
 723 116 l 1
 723 689 l 1
 336 689 l 1
 336 116 l 1
 495 116 l 1
 495 0 l 1
 61 0 l 1
 61 116 l 1
 185 116 l 1
 185 689 l 1
 56 689 l 1
 56 805 l 1
 185 805 l 1
 185 943 l 2
 185 1106 346 1172 512 1172 c 0
 612 1172 715 1145 779 1099 c 1
EndSplineSet
EndChar

StartChar: uniFB00
Encoding: 414 64256 422
Width: 1245
VWidth: 0
Flags: HW
LayerCount: 2
Fore
SplineSet
819 943 m 2
 819 1084 922 1171 1070 1171 c 0
 1198 1171 1267 1117 1290 996 c 1
 1180 963 l 1
 1163 1026 1127 1054 1079 1054 c 0
 1019 1054 970 1013 970 934 c 2
 970 805 l 1
 1160 805 l 1
 1160 689 l 1
 970 689 l 1
 970 116 l 1
 1129 116 l 1
 1129 0 l 1
 678 0 l 1
 678 116 l 1
 819 116 l 1
 819 689 l 1
 381 689 l 1
 381 116 l 1
 540 116 l 1
 540 0 l 1
 89 0 l 1
 89 116 l 1
 230 116 l 1
 230 689 l 1
 101 689 l 1
 101 805 l 1
 230 805 l 1
 230 943 l 2
 230 1084 333 1171 481 1171 c 0
 609 1171 678 1117 701 996 c 1
 591 963 l 1
 574 1026 538 1054 490 1054 c 0
 430 1054 381 1013 381 934 c 2
 381 805 l 1
 819 805 l 1
 819 943 l 2
EndSplineSet
EndChar

StartChar: Tbar
Encoding: 425 358 423
Width: 1055
VWidth: 0
Flags: HW
LayerCount: 2
Fore
SplineSet
273 595 m 5
 785 595 l 5
 785 478 l 5
 273 478 l 5
 273 595 l 5
EndSplineSet
Refer: 91 84 N 1 0 0 1 0 0 3
EndChar

StartChar: tbar
Encoding: 426 359 424
Width: 687
VWidth: 0
Flags: HW
LayerCount: 2
Fore
SplineSet
113 595 m 5
 597 595 l 5
 597 478 l 5
 113 478 l 5
 113 595 l 5
EndSplineSet
Refer: 306 116 N 1 0 0 1 0 0 2
EndChar

StartChar: eng
Encoding: 428 331 426
Width: 1073
VWidth: 0
Flags: HW
LayerCount: 2
Fore
SplineSet
411 691 m 1
 505 796 604 820 684 820 c 0
 843 820 928 719 929 562 c 5
 929 19 l 6
 929 -272 834 -303 558 -303 c 5
 558 -179 l 5
 722 -179 781 -176 781 -8 c 6
 781 507 l 6
 781 614 758 694 656 694 c 0
 579 694 497 655 411 572 c 1
 411 116 l 1
 556 116 l 1
 556 0 l 1
 117 0 l 1
 117 116 l 1
 260 116 l 1
 260 689 l 1
 111 689 l 1
 111 805 l 1
 407 805 l 1
 411 691 l 1
EndSplineSet
EndChar

StartChar: Eng
Encoding: 429 330 427
Width: 1415
VWidth: 0
Flags: HW
LayerCount: 2
Fore
SplineSet
878 1153 m 1
 1350 1153 l 1
 1350 1037 l 1
 1177 1037 l 1
 1177 0 l 1
 1177 0 l 1
 1173 -273 1077 -303 807 -303 c 1
 807 -179 l 1
 971 -179 1029 -176 1029 -8 c 2
 1029 30 l 1
 416 997 l 1
 416 116 l 1
 585 116 l 1
 585 0 l 1
 113 0 l 1
 113 116 l 1
 282 116 l 1
 282 1037 l 1
 113 1037 l 1
 113 1153 l 1
 495 1153 l 1
 1043 263 l 5
 1043 1037 l 1
 878 1037 l 1
 878 1153 l 1
EndSplineSet
EndChar

StartChar: perthousand
Encoding: 398 8240 428
Width: 2226
VWidth: 0
Flags: HW
LayerCount: 2
Fore
SplineSet
1259 -19 m 0
 1098 -19 1001 101 999 287 c 0
 998 466 1094 594 1259 594 c 0
 1423 594 1519 465 1519 287 c 0
 1520 108 1425 -19 1259 -19 c 0
1380 287 m 0
 1380 406 1347 490 1254 490 c 0
 1170 490 1138 390 1138 287 c 0
 1138 173 1168 84 1258 84 c 0
 1346 84 1380 182 1380 287 c 0
1900 -19 m 0
 1739 -19 1642 101 1640 287 c 0
 1639 466 1735 594 1900 594 c 0
 2064 594 2160 465 2160 287 c 0
 2161 108 2066 -19 1900 -19 c 0
2021 287 m 0
 2021 406 1988 490 1895 490 c 0
 1811 490 1779 390 1779 287 c 0
 1779 173 1809 84 1899 84 c 0
 1987 84 2021 182 2021 287 c 0
66 863 m 0
 66 1041 162 1170 326 1170 c 0
 489 1170 586 1040 586 863 c 0
 586 684 491 557 326 557 c 0
 165 557 66 676 66 863 c 0
447 863 m 0
 447 982 414 1066 321 1066 c 0
 237 1066 205 966 205 863 c 0
 206 749 236 660 326 660 c 0
 415 660 447 757 447 863 c 0
273 0 m 1
 1223 1196 l 1
 1284 1146 l 1
 341 -50 l 1
 273 0 l 1
EndSplineSet
EndChar

StartChar: uni2215
Encoding: 406 8725 429
Width: 793
VWidth: 0
Flags: HW
LayerCount: 2
Fore
SplineSet
563 1171 m 1
 692 1171 l 1
 258 -18 l 1
 129 -18 l 1
 563 1171 l 1
EndSplineSet
EndChar

StartChar: Delta
Encoding: 363 916 430
Width: 1122
VWidth: 0
Flags: HW
LayerCount: 2
Fore
SplineSet
853 313 m 1
 563 931 l 1
 269 313 l 1
 853 313 l 1
520 1084 m 1
 602 1084 l 1
 981 313 l 5
 980 208 l 5
 140 208 l 1
 141 311 l 1
 520 1084 l 1
EndSplineSet
EndChar
